<?xml version="1.0" standalone="no"?><!DOCTYPE svg PUBLIC "-//W3C//DTD SVG 1.1//EN" "http://www.w3.org/Graphics/SVG/1.1/DTD/svg11.dtd"><svg t="1668157446905" class="icon" viewBox="0 0 1024 1024" version="1.1" xmlns="http://www.w3.org/2000/svg" p-id="21616" xmlns:xlink="http://www.w3.org/1999/xlink" width="16" height="16"><path d="M147.872 96H880A48 48 0 0 1 928 144v415.2c0 10.816 3.648 21.344 10.4 29.824l2.112 2.688c7.36 9.28 7.36 22.336 0.064 31.616l-2.304 2.912a48 48 0 0 0-10.272 29.696V880a48 48 0 0 1-48 48h-736A48 48 0 0 1 96 880V147.872c0-12.736 5.056-24.928 14.08-33.92l3.84-3.904A48 48 0 0 1 147.904 96z" fill="#FFFFFF" p-id="21617"></path><path d="M96 896c249.504-85.344 388.16-218.656 416-400C539.84 314.656 667.84 192 896 128l-32.032-32H125.728L96 126.752V896z" fill="#C49F74" fill-opacity=".2" p-id="21618"></path><path d="M128 884.576v-34.24c212.256-81.728 328.16-201.344 352.384-359.2 25.824-168.512 132.256-289.92 315.392-363.136H896c-222.464 62.4-349.728 180.576-381.728 354.496l2.56 4.288c30.496 50.784 62.496 80.288 95.456 89.44l15.424 4.288-8.576 30.848-15.424-4.288c-35.52-9.888-68.064-36.32-97.984-78.72C468.8 685.664 342.88 804.384 128 884.608z" fill="#C49F74" p-id="21619"></path><path d="M416.32 896v32H128a32 32 0 0 1-32-32V128a32 32 0 0 1 32-32h768a32 32 0 0 1 32 32v354.72l-32-32.416V128H128v768h288.32zM896 896v-125.728l32-33.024V896a32 32 0 0 1-32 32h-154.4l31.008-32H896z" fill="#5D6D7E" p-id="21620"></path><path d="M769.536 588.384L512 845.92V928h114.304l14.848-15.552-87.776-87.776 22.624-22.656 35.68 35.68 204.576-204.576-46.72-44.736z m22.624-22.624l94.112 90.112 46.784-48.96-91.008-91.04-49.888 49.888z m72 113.248l-24.8-23.744-205.056 205.056 28.96 28.992 200.928-210.304z m-22.112-208.384l135.744 135.776L640 960h-160v-127.36l362.048-362.016z" fill="#C49F74" p-id="21621"></path></svg>