<?xml version="1.0" standalone="no"?><!DOCTYPE svg PUBLIC "-//W3C//DTD SVG 1.1//EN" "http://www.w3.org/Graphics/SVG/1.1/DTD/svg11.dtd"><svg t="1668158666965" class="icon" viewBox="0 0 1024 1024" version="1.1" xmlns="http://www.w3.org/2000/svg" p-id="9954" xmlns:xlink="http://www.w3.org/1999/xlink" width="16" height="16"><path d="M341.333333 355.555556v483.555555l521.481482-312.888889V431.407407l-436.148148 270.222223V388.740741z" fill="#72DDF5" p-id="9955"></path><path d="M327.111111 355.555556v483.555555c0 11.055407 12.060444 17.882074 21.537185 12.193185l521.481482-312.888889A14.222222 14.222222 0 0 0 877.037037 526.222222V431.407407l-0.023704-0.805926c-0.568889-10.666667-12.444444-17.009778-21.688889-11.282962L440.888889 676.077037V388.740741a14.222222 14.222222 0 0 0-9.069037-13.255111l-85.333333-33.185186C337.166222 338.673778 327.111111 345.552593 327.111111 355.555556z m28.444445 20.792888l56.888888 22.120297V701.62963l0.023704 0.805926c0.568889 10.666667 12.444444 17.009778 21.688889 11.282963L848.592593 456.950519v61.217185l-493.037037 295.822222V376.348444z" fill="#221937" p-id="9956"></path><path d="M341.333333 839.111111l-71.111111-52.148148V241.777778l450.370371 189.629629-80.592593 47.407408-298.666667-123.259259z" fill="#F7E94C" p-id="9957"></path><path d="M256 241.777778v545.185185a14.222222 14.222222 0 0 0 5.812148 11.472593l71.111111 52.148148 0.644741 0.445629C342.912 857.163852 355.555556 850.488889 355.555556 839.111111V376.813037l279.021037 115.152593a14.222222 14.222222 0 0 0 12.634074-0.89126l80.592592-47.407407c10.083556-5.935407 9.092741-20.826074-1.692444-25.362963l-450.370371-189.62963C266.368 224.720593 256 231.599407 256 241.777778z m28.444444 21.418666l404.508445 170.315852-50.066963 29.454223-292.124445-120.557038-0.786962-0.298666C336.83437 338.934519 327.111111 345.709037 327.111111 355.555556v455.485629l-42.666667-31.288889V263.196444z" fill="#221937" p-id="9958"></path><path d="M426.666667 611.555556l293.925926-180.148149-450.370371-189.629629 85.333334-47.407408 507.259259 237.037037-436.148148 270.222223z" fill="#F55C92" p-id="9959"></path><path d="M263.314963 229.347556l-0.777482 0.459851c-9.543111 6.068148-8.485926 20.593778 2.166519 25.078519l424.832 178.872889-270.302815 165.669926A14.222222 14.222222 0 0 0 412.444444 611.555556v90.074074c0 11.145481 12.235852 17.957926 21.712593 12.088889l436.148148-270.222223c9.604741-5.94963 8.77037-20.190815-1.469629-24.974222l-507.25926-237.037037a14.222222 14.222222 0 0 0-12.928 0.455111l-85.333333 47.407408z m92.795259-19.019852l476.86163 222.829037L440.888889 676.081778v-56.566519l287.137185-175.981037 0.758519-0.497778c9.050074-6.319407 7.722667-20.361481-2.673778-24.737185L302.677333 240.009481l53.432889-29.681777z" fill="#221937" p-id="9960"></path><path d="M421.429547 250.567014m-8.72775-3.70471a9.481481 9.481481 0 1 0 17.4555 7.40942 9.481481 9.481481 0 1 0-17.4555-7.40942Z" fill="#221937" p-id="9961"></path><path d="M482.523795 276.499984m-8.72775-3.70471a9.481481 9.481481 0 1 0 17.4555 7.40942 9.481481 9.481481 0 1 0-17.4555-7.40942Z" fill="#221937" p-id="9962"></path><path d="M543.618043 302.432954m-8.72775-3.70471a9.481481 9.481481 0 1 0 17.4555 7.409419 9.481481 9.481481 0 1 0-17.4555-7.409419Z" fill="#221937" p-id="9963"></path><path d="M604.712291 328.365923m-8.72775-3.70471a9.481481 9.481481 0 1 0 17.4555 7.40942 9.481481 9.481481 0 1 0-17.4555-7.40942Z" fill="#221937" p-id="9964"></path><path d="M665.806539 354.298893m-8.72775-3.70471a9.481481 9.481481 0 1 0 17.4555 7.40942 9.481481 9.481481 0 1 0-17.4555-7.40942Z" fill="#221937" p-id="9965"></path><path d="M726.900787 380.231863m-8.72775-3.70471a9.481481 9.481481 0 1 0 17.4555 7.40942 9.481481 9.481481 0 1 0-17.4555-7.40942Z" fill="#221937" p-id="9966"></path><path d="M787.995035 406.164832m-8.727749-3.70471a9.481481 9.481481 0 1 0 17.455499 7.40942 9.481481 9.481481 0 1 0-17.455499-7.40942Z" fill="#221937" p-id="9967"></path><path d="M849.089283 432.097802m-8.727749-3.70471a9.481481 9.481481 0 1 0 17.455499 7.40942 9.481481 9.481481 0 1 0-17.455499-7.40942Z" fill="#221937" p-id="9968"></path><path d="M355.05936 250.567051m-8.727749-3.704709a9.481481 9.481481 0 1 0 17.455499 7.409419 9.481481 9.481481 0 1 0-17.455499-7.409419Z" fill="#221937" p-id="9969"></path><path d="M416.153608 276.500021m-8.727749-3.70471a9.481481 9.481481 0 1 0 17.455499 7.40942 9.481481 9.481481 0 1 0-17.455499-7.40942Z" fill="#221937" p-id="9970"></path><path d="M477.247856 302.432991m-8.727749-3.70471a9.481481 9.481481 0 1 0 17.455499 7.40942 9.481481 9.481481 0 1 0-17.455499-7.40942Z" fill="#221937" p-id="9971"></path><path d="M538.342105 328.365961m-8.72775-3.70471a9.481481 9.481481 0 1 0 17.455499 7.40942 9.481481 9.481481 0 1 0-17.455499-7.40942Z" fill="#221937" p-id="9972"></path><path d="M599.436353 354.29893m-8.72775-3.70471a9.481481 9.481481 0 1 0 17.455499 7.40942 9.481481 9.481481 0 1 0-17.455499-7.40942Z" fill="#221937" p-id="9973"></path><path d="M660.530601 380.2319m-8.72775-3.70471a9.481481 9.481481 0 1 0 17.455499 7.40942 9.481481 9.481481 0 1 0-17.455499-7.40942Z" fill="#221937" p-id="9974"></path><path d="M721.624849 406.16487m-8.72775-3.70471a9.481481 9.481481 0 1 0 17.455499 7.40942 9.481481 9.481481 0 1 0-17.455499-7.40942Z" fill="#221937" p-id="9975"></path><path d="M424.039392 644.578505m-8.040752 5.02442a9.481481 9.481481 0 1 0 16.081505-10.04884 9.481481 9.481481 0 1 0-16.081505 10.04884Z" fill="#221937" p-id="9976"></path><path d="M480.324659 609.407567m-8.040753 5.02442a9.481481 9.481481 0 1 0 16.081505-10.048839 9.481481 9.481481 0 1 0-16.081505 10.048839Z" fill="#221937" p-id="9977"></path><path d="M536.609925 574.23663m-8.040753 5.024419a9.481481 9.481481 0 1 0 16.081505-10.048839 9.481481 9.481481 0 1 0-16.081505 10.048839Z" fill="#221937" p-id="9978"></path><path d="M592.895191 539.065692m-8.040752 5.024419a9.481481 9.481481 0 1 0 16.081504-10.048839 9.481481 9.481481 0 1 0-16.081504 10.048839Z" fill="#221937" p-id="9979"></path><path d="M649.180457 503.894754m-8.040752 5.02442a9.481481 9.481481 0 1 0 16.081505-10.04884 9.481481 9.481481 0 1 0-16.081505 10.04884Z" fill="#221937" p-id="9980"></path><path d="M705.465723 468.723816m-8.040752 5.02442a9.481481 9.481481 0 1 0 16.081505-10.04884 9.481481 9.481481 0 1 0-16.081505 10.04884Z" fill="#221937" p-id="9981"></path><path d="M761.75099 433.552878m-8.040753 5.02442a9.481481 9.481481 0 1 0 16.081505-10.04884 9.481481 9.481481 0 1 0-16.081505 10.04884Z" fill="#221937" p-id="9982"></path><path d="M466.4044 650.697957m-8.040752 5.02442a9.481481 9.481481 0 1 0 16.081505-10.048839 9.481481 9.481481 0 1 0-16.081505 10.048839Z" fill="#221937" p-id="9983"></path><path d="M522.689667 615.52702m-8.040753 5.024419a9.481481 9.481481 0 1 0 16.081505-10.048839 9.481481 9.481481 0 1 0-16.081505 10.048839Z" fill="#221937" p-id="9984"></path><path d="M578.974933 580.356082m-8.040752 5.024419a9.481481 9.481481 0 1 0 16.081504-10.048839 9.481481 9.481481 0 1 0-16.081504 10.048839Z" fill="#221937" p-id="9985"></path><path d="M635.260199 545.185144m-8.040752 5.02442a9.481481 9.481481 0 1 0 16.081504-10.04884 9.481481 9.481481 0 1 0-16.081504 10.04884Z" fill="#221937" p-id="9986"></path><path d="M691.545465 510.014206m-8.040752 5.02442a9.481481 9.481481 0 1 0 16.081505-10.04884 9.481481 9.481481 0 1 0-16.081505 10.04884Z" fill="#221937" p-id="9987"></path><path d="M747.830732 474.843268m-8.040753 5.02442a9.481481 9.481481 0 1 0 16.081505-10.048839 9.481481 9.481481 0 1 0-16.081505 10.048839Z" fill="#221937" p-id="9988"></path><path d="M804.115998 439.67233m-8.040753 5.02442a9.481481 9.481481 0 1 0 16.081505-10.048839 9.481481 9.481481 0 1 0-16.081505 10.048839Z" fill="#221937" p-id="9989"></path></svg>