<?xml version="1.0" standalone="no"?><!DOCTYPE svg PUBLIC "-//W3C//DTD SVG 1.1//EN" "http://www.w3.org/Graphics/SVG/1.1/DTD/svg11.dtd"><svg t="1668139827462" class="icon" viewBox="0 0 1024 1024" version="1.1" xmlns="http://www.w3.org/2000/svg" p-id="5905" xmlns:xlink="http://www.w3.org/1999/xlink" width="16" height="16"><path d="M807.0144 230.11328c-196.15744-20.02944-393.87136-20.02944-590.0288 0-59.04384 6.02112-103.936 55.74656-103.936 115.0976v117.28896c0 64.4096 52.224 116.6336 116.6336 116.6336 62.48448 0 113.13152 50.64704 113.13152 113.13152 0 64.4096 52.224 116.6336 116.6336 116.6336h105.12384c64.4096 0 116.6336-52.224 116.6336-116.6336 0-62.48448 50.64704-113.13152 113.13152-113.13152h0.94208c63.8976 0 115.69152-51.79392 115.69152-115.69152v-118.21056c0-59.37152-44.91264-109.09696-103.95648-115.11808z" fill="#D4D4FF" p-id="5906"></path><path d="M681.20576 692.24448c0-62.48448 50.64704-113.13152 113.13152-113.13152h0.94208c63.8976 0 115.69152-51.79392 115.69152-115.69152v-118.21056c0-59.35104-44.91264-109.07648-103.936-115.0976-93.26592-9.5232-186.88-14.45888-280.51456-14.92992-43.60192 64.7168-69.05856 142.68416-69.05856 226.59072 0 141.78304 72.68352 266.56768 182.784 339.18976 25.04704-21.38112 40.96-53.18656 40.96-88.71936z" fill="#EFEDFF" p-id="5907"></path><path d="M910.97088 334.76608h-166.42048c-41.79968 0-75.6736 33.87392-75.6736 75.6736 0 41.79968 33.87392 75.6736 75.6736 75.6736h166.42048" fill="#D4D4FF" p-id="5908"></path><path d="M907.83744 496.76288h-52.98176c-5.87776 0-10.62912-4.77184-10.62912-10.62912s4.77184-10.62912 10.62912-10.62912h52.98176c5.87776 0 10.62912 4.77184 10.62912 10.62912s-4.77184 10.62912-10.62912 10.62912zM780.67712 496.76288h-39.26016c-47.59552 0-86.30272-38.72768-86.30272-86.30272s38.72768-86.30272 86.30272-86.30272h166.42048c5.87776 0 10.62912 4.77184 10.62912 10.62912 0 5.87776-4.77184 10.62912-10.62912 10.62912h-166.42048c-35.86048 0-65.024 29.184-65.024 65.024s29.184 65.024 65.024 65.024h39.26016c5.87776 0 10.62912 4.77184 10.62912 10.62912s-4.75136 10.67008-10.62912 10.67008z" p-id="5909"></path><path d="M752.47616 410.43968m-31.3344 0a31.3344 31.3344 0 1 0 62.6688 0 31.3344 31.3344 0 1 0-62.6688 0Z" fill="#FFFFFF" p-id="5910"></path><path d="M752.47616 452.42368c-23.1424 0-41.96352-18.82112-41.96352-41.96352 0-23.1424 18.82112-41.984 41.96352-41.984 23.1424 0 41.984 18.82112 41.984 41.984-0.02048 23.12192-18.8416 41.96352-41.984 41.96352z m0-62.6688c-11.40736 0-20.6848 9.27744-20.6848 20.70528 0 11.40736 9.27744 20.6848 20.6848 20.6848 11.40736 0 20.70528-9.27744 20.70528-20.6848-0.02048-11.42784-9.29792-20.70528-20.70528-20.70528z" p-id="5911"></path><path d="M114.2784 334.76608h166.42048c41.79968 0 75.6736 33.87392 75.6736 75.6736 0 41.79968-33.87392 75.6736-75.6736 75.6736H114.2784" fill="#9EA2E3" p-id="5912"></path><path d="M280.6784 496.76288H114.2784v-21.27872h166.42048c35.86048 0 65.024-29.184 65.024-65.024s-29.184-65.024-65.024-65.024H114.2784v-21.27872h166.42048c47.59552 0 86.30272 38.72768 86.30272 86.30272s-38.72768 86.30272-86.3232 86.30272z" p-id="5913"></path><path d="M272.75264 410.43968m-31.3344 0a31.3344 31.3344 0 1 0 62.6688 0 31.3344 31.3344 0 1 0-62.6688 0Z" fill="#FFFFFF" p-id="5914"></path><path d="M272.75264 452.42368c-23.1424 0-41.96352-18.82112-41.96352-41.96352 0-23.1424 18.82112-41.984 41.96352-41.984s41.96352 18.82112 41.96352 41.984c0.02048 23.12192-18.82112 41.96352-41.96352 41.96352z m0-62.6688c-11.40736 0-20.6848 9.27744-20.6848 20.70528 0 11.40736 9.27744 20.6848 20.6848 20.6848 11.40736 0 20.6848-9.27744 20.6848-20.6848 0.02048-11.42784-9.27744-20.70528-20.6848-20.70528z" p-id="5915"></path><path d="M564.57216 819.52768h-105.12384c-70.18496 0-127.26272-57.09824-127.26272-127.26272 0-56.50432-45.9776-102.48192-102.48192-102.48192-70.18496 0-127.26272-57.09824-127.26272-127.26272v-117.28896c0-65.04448 48.80384-119.07072 113.50016-125.68576 16.03584-1.6384 32.256-3.15392 48.2304-4.52608a10.657792 10.657792 0 0 1 11.50976 9.68704 10.65984 10.65984 0 0 1-9.68704 11.50976c-15.85152 1.35168-31.9488 2.8672-47.86176 4.48512a104.77568 104.77568 0 0 0-94.39232 104.50944v117.28896c0 58.44992 47.55456 106.00448 106.00448 106.00448 68.23936 0 123.76064 55.52128 123.76064 123.76064 0 58.44992 47.55456 106.00448 106.00448 106.00448h105.12384c58.44992 0 106.00448-47.55456 106.00448-106.00448 0-68.23936 55.52128-123.76064 123.76064-123.76064h0.94208c57.93792 0 105.0624-47.12448 105.0624-105.0624v-118.21056c0-54.08768-40.57088-99.0208-94.39232-104.50944-142.49984-14.56128-287.31392-18.51392-430.3872-11.75552-5.87776 0.32768-10.8544-4.25984-11.12064-10.11712a10.614784 10.614784 0 0 1 10.11712-11.12064c144.13824-6.79936 289.9968-2.82624 433.5616 11.83744a125.988864 125.988864 0 0 1 113.50016 125.68576v118.21056c0 69.65248-56.66816 126.34112-126.34112 126.34112h-0.94208c-56.50432 0-102.48192 45.9776-102.48192 102.48192-0.08192 70.144-57.18016 127.24224-127.34464 127.24224z" p-id="5916"></path><path d="M353.25952 536.00256a44.60544 34.65216 0 1 0 89.21088 0 44.60544 34.65216 0 1 0-89.21088 0Z" fill="#FF8E9E" p-id="5917"></path><path d="M406.7328 511.97952c-5.87776 0-10.62912-4.77184-10.62912-10.62912v-23.63392c0-5.87776 4.77184-10.62912 10.62912-10.62912s10.62912 4.77184 10.62912 10.62912v23.63392c0.02048 5.85728-4.75136 10.62912-10.62912 10.62912z" p-id="5918"></path><path d="M560.82432 536.00256a44.60544 34.65216 0 1 0 89.21088 0 44.60544 34.65216 0 1 0-89.21088 0Z" fill="#FF8E9E" p-id="5919"></path><path d="M583.96672 511.97952c-5.87776 0-10.62912-4.77184-10.62912-10.62912v-23.63392c0-5.87776 4.77184-10.62912 10.62912-10.62912s10.62912 4.77184 10.62912 10.62912v23.63392c0.02048 5.85728-4.75136 10.62912-10.62912 10.62912zM496.70144 518.28736c-16.54784 0-29.65504-7.76192-36.18816-14.336-4.13696-4.15744-4.11648-10.89536 0.04096-15.0528 4.13696-4.13696 10.83392-4.11648 14.99136-0.02048 2.00704 1.9456 19.88608 17.89952 45.568-1.00352a10.631168 10.631168 0 1 1 12.61568 17.12128c-13.25056 9.76896-25.92768 13.29152-37.02784 13.29152z" p-id="5920"></path></svg>