<?xml version="1.0" standalone="no"?><!DOCTYPE svg PUBLIC "-//W3C//DTD SVG 1.1//EN" "http://www.w3.org/Graphics/SVG/1.1/DTD/svg11.dtd"><svg t="1678454657406" class="icon" viewBox="0 0 1024 1024" version="1.1" xmlns="http://www.w3.org/2000/svg" p-id="53947" xmlns:xlink="http://www.w3.org/1999/xlink" width="16" height="16"><path d="M511.998969 511.998969m-511.998969 0a511.998969 511.998969 0 1 0 1023.997938 0 511.998969 511.998969 0 1 0-1023.997938 0Z" fill="#FDBF5E" p-id="53948"></path><path d="M721.600467 721.600467c-115.200902 115.200902-304.000032 115.200902-419.200934 0s-115.200902-304.000032 0-419.200934 304.000032-115.200902 419.200934 0c116.799339 115.200902 116.799339 304.000032 0 419.200934z" fill="#FFFFFF" p-id="53949"></path><path d="M291.200161 732.799839c-121.600838-121.600838-121.600838-320.000902 0-441.599678s320.000902-121.600838 441.599678 0 121.600838 320.000902 0 441.599678-320.000902 121.600838-441.599678 0z m22.398743-419.200935c-110.399404 110.399404-110.399404 287.999162 0 398.400629s287.999162 110.399404 398.400629 0 110.399404-287.999162 0-398.400629-289.599662-110.399404-398.400629 0z" fill="#193651" p-id="53950"></path><path d="M270.406042 511.963906a241.601176 241.601176 0 1 0 483.202353 0 241.601176 241.601176 0 1 0-483.202353 0Z" fill="#E1E6E9" p-id="53951"></path><path d="M555.200081 526.399339s0-14.400371-35.200677 4.799436c0 0-6.399936 9.600935-22.400806-14.40037l-11.199371 6.399935s-17.599307-16.00087-22.400806-1.600499c0 0-1.6005 9.600935-17.599307 1.600499 0 0-27.200242 6.399936-9.600935 40.000113 0 0-19.199807 35.200677 31.999678 41.600612l23.999243 3.200999 17.599307 31.999678s9.600935-3.200999 12.799871 12.799871c0 0 17.599307 4.799436 19.199806 28.800741 0 0 28.800741 25.599742 43.19905 3.201l-9.600935-1.6005-3.200999-14.400371-9.600934 4.799436-3.200999-17.599307-9.600935-1.600499s35.200677-20.800306 17.599307-52.799984c0 0-23.999243-6.399936 3.200999-17.599307 0 0 12.799871-6.399936-4.799436-35.200677 0 0 4.799436-16.00087 0-20.800306-3.190687-6.399936-11.191122-1.6005-11.191121-1.6005zM656.000612 318.400403c1.6005 11.199372 11.199372 20.800306 11.199372 20.800306 1.6005 22.400806-38.399613 8.000435-38.399613 8.000435 1.6005 25.599742-31.999678 16.00087-31.999678 16.00087-68.800854 1.6005-49.598985 56.000983-49.598985 56.000983-12.799871 41.600612 33.600177 62.400918 33.600177 62.400919 28.800741 12.799871 35.200677-28.800741 35.200677-28.800742 25.599742 11.199372 33.600177 0 33.600177 0l3.200999 12.799871c3.200999 12.799871 30.399178 16.00087 33.600178 20.800307 3.200999 6.399936-16.00087 35.200677 14.40037 41.600612 30.399178 6.399936 28.800741 23.999243 28.800741 23.999243s9.600935 1.6005 19.199807 4.799436c11.199372-52.799984 3.200999-110.399404-25.599742-161.600951-16.004995-30.401241-40.004238-56.000983-67.20448-76.801289zM329.599774 561.600016l22.400806 16.00087c22.400806 16.00087 22.400806-17.599307 12.799871-27.200241-9.600935-8.000435-9.600935-30.399178 19.199807-38.399614s11.199372-11.199372 17.599307-52.799984 31.999678-25.599742 30.399178-46.400048c-3.200999-20.800306-14.400371-54.400483-30.399178-20.800306-16.00087 33.600177-17.599307 23.999243-9.600935-19.199807 6.399936-41.600612-12.799871 14.400371-52.799984 35.200677-17.599307 9.600935-30.399178 0-38.399613-11.199372-12.799871 23.999243-22.400806 49.598985-27.200241 76.799227 3.200999 14.400371 8.000435 30.399178 14.40037 56.000983 9.600935 39.99805 41.600612 31.997615 41.600612 31.997615z" fill="#2EA2DB" p-id="53952"></path><path d="M177.599758 171.199823C84.799662 263.999919 38.399613 385.600757 38.399613 507.199533S84.799662 750.399146 177.599758 843.199243c140.800645 140.800645 348.799581 174.400822 523.200403 100.800531l-41.600612-86.400161c-137.599646 56.000983-300.799033 28.800741-412.798937-81.600725-147.20058-147.20058-147.20058-388.799694 0-536.000274L177.599758 171.199823z" fill="#E1E6E9" p-id="53953"></path><path d="M168.000886 852.800177C75.20079 760.000081 24.001305 636.800806 24.001305 505.601096S75.20079 251.200048 168.000886 158.399952c3.200999-3.200999 6.399936-4.799436 11.199372-4.799436 4.799436 0 8.000435 1.6005 11.199371 4.799436l67.200355 67.200354c6.399936 6.399936 6.399936 16.00087 0 22.400806-142.399082 142.399082-142.399082 372.800886 0 515.199968 108.800967 108.800967 265.600419 132.800209 396.800129 78.399726 8.000435-3.200999 16.00087 0 19.199806 8.000435l41.600613 86.400161c1.6005 3.200999 1.6005 8.000435 0 12.799871-1.6005 3.200999-4.799436 6.399936-8.000435 8.000435-177.599758 76.797164-393.601192 43.199049-539.199211-104.001531z m9.598872-659.199549c-80.000226 84.799662-123.199275 196.799565-123.199275 313.598905 0 123.199275 48.000548 238.400177 134.400709 324.800338 134.400709 134.400709 327.999275 166.400387 491.200725 103.999468l-28.800741-57.59942c-137.599646 51.199484-302.399533 22.400806-415.999935-91.199597-150.399517-152.000016-153.600516-393.59913-11.199372-548.800145L177.599758 193.600628z" fill="#193651" p-id="53954"></path><path d="M814.400564 806.400129c-17.599307-17.599307-44.799549-19.199807-62.400918-3.200999-28.800741 22.400806-59.199919 41.600612-92.800097 54.400483l41.600612 86.400161c38.399613-16.00087 75.20079-38.399613 108.798904-65.599855 22.400806-17.599307 24.001305-51.199484 4.801499-71.99979z" fill="#4FBF9F" p-id="53955"></path><path d="M700.800161 958.400145c-6.399936 0-11.199372-3.200999-14.40037-8.000435l-41.600613-86.400161c-1.6005-3.200999-1.6005-8.000435 0-12.799871 1.6005-3.200999 4.799436-6.399936 8.000435-8.000435 31.999678-12.799871 62.400918-30.399178 88.000661-52.799984 23.999243-19.199807 60.800419-17.599307 83.199162 4.799436 27.200242 27.200242 23.999243 70.399291-4.799436 94.400596-33.600177 27.200242-71.999791 49.598985-111.999903 67.200355-3.200999 1.6005-4.799436 1.6005-6.399936 1.600499z m-22.400806-92.800097l28.800742 57.59942c33.600177-16.00087 63.999355-33.600177 92.800096-57.59942 14.400371-11.199372 17.599307-35.200677 3.200999-48.000548-11.199372-11.199372-30.399178-12.799871-43.199049-3.200999-24.001305 20.800306-51.201547 36.801176-81.602788 51.201547z" fill="#193651" p-id="53956"></path><path d="M177.599758 171.199823l116.79934-59.19992-49.598985 126.400274z" fill="#FDBF5E" p-id="53957"></path><path d="M244.800113 254.398985c-4.799436 0-8.000435-1.6005-11.199372-4.799436L166.400387 182.399194c-3.200999-3.200999-4.799436-8.000435-4.799436-12.799871 0-4.799436 3.200999-9.600935 8.000435-11.199371l115.200902-59.19992c8.000435-3.200999 14.400371-3.200999 19.199807 1.6005 4.799436 4.799436 6.399936 11.199372 4.799436 17.599307l-48.000548 126.400274c-1.6005 4.799436-6.399936 8.000435-11.199372 9.600934l-4.801498-0.002062z m-41.600613-79.998163l35.200677 35.200677L263.999919 142.399082 203.1995 174.400822zM940.798775 724.799404l-27.200241-12.799871c4.799436-9.600935 8.000435-17.599307 11.199371-27.200242l28.800741 11.199372c-3.198937 9.600935-7.998373 20.800306-12.799871 28.800741z m24.001306-57.59942l-28.800742-9.600935c3.200999-9.600935 6.399936-19.199807 8.000435-28.800741l30.399179 8.000435c-3.198937 9.600935-6.399936 20.800306-9.598872 30.401241z m15.998807-60.800419l-30.399178-6.399936 4.799436-28.800741 30.399178 3.200999c-1.598437 11.199372-3.198937 20.800306-4.799436 31.999678z m6.399936-63.999356l-30.399178-1.600499v-28.800741h30.399178c1.6005 9.600935 1.6005 19.201869 0 30.40124z m-30.399178-60.800418c0-9.600935-1.6005-19.199807-3.201-28.800742l30.399179-4.799436c1.6005 9.600935 3.200999 20.800306 3.200999 31.999678l-30.399178 1.6005z m-8.000436-57.59942c-1.6005-9.600935-4.799436-19.199807-6.399935-28.800742l28.800741-8.000435c3.200999 9.600935 4.799436 20.800306 8.000435 30.399179l-30.401241 6.401998z m-15.998807-57.601483c-3.200999-9.600935-6.399936-19.199807-11.199372-27.200242l28.800741-12.799871c4.799436 9.600935 8.000435 19.199807 11.199372 28.800742l-28.800741 11.199371z m-24.001305-54.398421c-4.799436-8.000435-9.600935-17.599307-14.400371-25.599742l25.599742-16.00087c4.799436 9.600935 11.199372 17.599307 16.00087 27.200242l-27.200241 14.40037z m-30.399179-51.201547c-4.799436-8.000435-11.199372-16.00087-17.599307-23.999242l23.999243-19.199807c6.399936 8.000435 12.799871 16.00087 19.199807 25.599742l-25.599743 17.599307z m-35.200676-46.397985c-4.799436-4.799436-9.600935-11.199372-16.00087-16.000871l-4.799436-4.799436 20.800306-22.400805 4.799436 4.799436c6.399936 6.399936 11.199372 11.199372 16.00087 17.599307l-20.800306 20.802369z m-43.19905-40.000113c-8.000435-6.399936-16.00087-12.799871-22.400805-19.199807l17.599307-23.999243 23.999243 19.199807-19.197745 23.999243z m-48.000547-35.200677c-8.000435-6.399936-16.00087-11.199372-25.599743-16.00087l16.00087-27.200242c9.600935 4.799436 17.599307 11.199372 27.200242 16.00087l-17.601369 27.200242z m-51.199485-28.800741c-9.600935-4.799436-17.599307-8.000435-27.200242-11.199372l11.199372-28.800741c9.600935 3.200999 19.199807 8.000435 28.800741 12.799871l-12.799871 27.200242z m-56.000983-22.398743c-9.600935-3.200999-19.199807-6.399936-28.800741-8.000435l8.000435-28.800742c9.600935 3.200999 20.800306 4.799436 30.399178 8.000435l-9.598872 28.800742z m-262.39942-3.200999l-8.000435-28.800742c9.600935-3.200999 20.800306-6.399936 30.399178-8.000435l6.399936 30.399179c-9.598872 1.602562-19.197744 4.801499-28.798679 6.401998z m206.4005-11.199372l-28.800741-4.799436 3.200999-30.399178c9.600935 1.6005 20.800306 3.200999 31.999677 4.799436l-6.399935 30.399178z m-148.80108-1.600499l-4.799436-30.399179c11.199372-1.6005 20.800306-3.200999 31.999678-3.200999l3.200999 30.399179c-9.600935 1.6005-19.199807 1.6005-30.401241 3.200999z m89.60116-4.799437h-30.399178v-30.40124h31.999678l-1.6005 30.40124z" fill="#193651" p-id="53958"></path></svg>