<?xml version="1.0" standalone="no"?><!DOCTYPE svg PUBLIC "-//W3C//DTD SVG 1.1//EN" "http://www.w3.org/Graphics/SVG/1.1/DTD/svg11.dtd"><svg t="1668155950548" class="icon" viewBox="0 0 1024 1024" version="1.1" xmlns="http://www.w3.org/2000/svg" p-id="1508" xmlns:xlink="http://www.w3.org/1999/xlink" width="16" height="16"><path d="M128 64m144 0l416 0q144 0 144 144l0 608q0 144-144 144l-416 0q-144 0-144-144l0-608q0-144 144-144Z" fill="#FFFFFF" p-id="1509"></path><path d="M192 352m112 0l384 0q112 0 112 112l0 352q0 112-112 112l-384 0q-112 0-112-112l0-352q0-112 112-112Z" fill="#FFBF80" p-id="1510"></path><path d="M736 736m-208 0a208 208 0 1 0 416 0 208 208 0 1 0-416 0Z" fill="#FFFFFF" p-id="1511"></path><path d="M304 128h384a112 112 0 0 1 112 112v48H224a32 32 0 0 1-32-32v-16a112 112 0 0 1 112-112z" fill="#C4F08B" p-id="1512"></path><path d="M760 760m-184 0a184 184 0 1 0 368 0 184 184 0 1 0-368 0Z" fill="#FF8591" p-id="1513"></path><path d="M736 960a224 224 0 1 1 158.39-65.61A222.53 222.53 0 0 1 736 960z m0-416c-105.87 0-192 86.13-192 192s86.13 192 192 192 192-86.13 192-192-86.13-192-192-192z" fill="#333333" p-id="1514"></path><path d="M688 64H272c-79.4 0-144 64.6-144 144v608c0 79.4 64.6 144 144 144h207.84a16 16 0 0 0 0-32H272a112.12 112.12 0 0 1-112-112V320h640v95.59a16 16 0 0 0 32 0V208c0-79.4-64.6-144-144-144zM160 288v-80A112.12 112.12 0 0 1 272 96h416a112.12 112.12 0 0 1 112 112v80z" fill="#333333" p-id="1515"></path><path d="M784 816a31.9 31.9 0 0 1-22.63-9.37l-96-96a32 32 0 0 1 45.26-45.26l96 96A32 32 0 0 1 784 816z" fill="#333333" p-id="1516"></path></svg>