<?xml version="1.0" standalone="no"?><!DOCTYPE svg PUBLIC "-//W3C//DTD SVG 1.1//EN" "http://www.w3.org/Graphics/SVG/1.1/DTD/svg11.dtd"><svg t="1668140220988" class="icon" viewBox="0 0 1024 1024" version="1.1" xmlns="http://www.w3.org/2000/svg" p-id="31651" xmlns:xlink="http://www.w3.org/1999/xlink" width="16" height="16"><path d="M896.2 153.8V448h-64V153.8c0-17.1-5.4-25.8-16.2-25.8H163.5c-16.2 0-35.4 14-35.4 25.8v715.9c0 10.4 20.2 25.8 38.4 25.8H448v64H166.5c-48.4 0-102.5-38.4-102.5-89.8V153.8c0-24.4 12.2-48.4 33.6-65.7C116.4 72.8 140.4 64 163.5 64H816c47.2 0 80.2 36.9 80.2 89.8z" fill="#727272" p-id="31652"></path><path d="M815.9 128H163.5c-16.2 0-35.4 14-35.4 25.8V384h704.1V153.8c-0.1-17.1-5.5-25.8-16.3-25.8zM608.2 256.3H190.9v-64h417.2v64z m159.5 0h-64v-64h64v64z" fill="#E6C37C" p-id="31653"></path><path d="M127.9 319.7h704.3v64H127.9z" fill="#B2B2B2" p-id="31654"></path><path d="M960 714v-64h-78.6c-5.1-31.8-17.7-61.2-35.8-86.3l55.6-55.6-45.2-45.2-55.6 55.6c-25.1-18.2-54.5-30.8-86.3-35.9V404h-64v78.6c-31.8 5.1-61.2 17.7-86.3 35.8l-55.6-55.6L463 508l55.6 55.6c-18.2 25.1-30.8 54.5-35.9 86.3h-78.6v64h78.6c5.1 31.8 17.7 61.2 35.8 86.3l-55.6 55.6 45.2 45.2 55.6-55.6c25.1 18.2 54.5 30.8 86.3 35.9V960h64v-78.6c31.8-5.1 61.2-17.7 86.3-35.8l55.6 55.6 45.2-45.2-55.6-55.6c18.2-25.1 30.8-54.5 35.9-86.3H960z m-140-32c0 76.1-61.9 138-137.9 138s-137.9-61.9-137.9-138 61.9-138 137.9-138S820 605.9 820 682z" fill="#497CAD" p-id="31655"></path></svg>