<?xml version="1.0" standalone="no"?><!DOCTYPE svg PUBLIC "-//W3C//DTD SVG 1.1//EN" "http://www.w3.org/Graphics/SVG/1.1/DTD/svg11.dtd"><svg t="1678456794651" class="icon" viewBox="0 0 1024 1024" version="1.1" xmlns="http://www.w3.org/2000/svg" p-id="65256" xmlns:xlink="http://www.w3.org/1999/xlink" width="16" height="16"><path d="M21.333333 654.933333v142.933334L512 1002.666667l490.666667-204.8v-142.933334L512 490.666667 21.333333 654.933333z" fill="#3399FF" p-id="65257"></path><path d="M512 1024L0 810.666667v-172.8l512-170.666667 512 170.666667V810.666667L512 1024zM42.666667 782.933333l469.333333 196.266667 469.333333-196.266667v-113.066666L512 512 42.666667 669.866667v113.066666z" p-id="65258"></path><path d="M512 896L21.333333 699.733333l17.066667-40.533333L512 849.066667l473.6-189.866667 17.066667 40.533333z" p-id="65259"></path><path d="M832 640s-64 85.333333-309.333333 85.333333S213.333333 640 213.333333 640V138.666667c0-64 138.666667-117.333333 309.333334-117.333334S832 72.533333 832 138.666667V640z" fill="#FFFFFF" p-id="65260"></path><path d="M522.666667 746.666667c-253.866667 0-324.266667-89.6-326.4-93.866667l-4.266667-6.4V138.666667C192 46.933333 362.666667 0 522.666667 0S853.333333 46.933333 853.333333 138.666667v507.733333l-4.266666 6.4c-2.133333 2.133333-72.533333 93.866667-326.4 93.866667zM234.666667 631.466667c17.066667 17.066667 91.733333 72.533333 288 72.533333s270.933333-55.466667 288-72.533333V138.666667C810.666667 98.133333 701.866667 42.666667 522.666667 42.666667S234.666667 98.133333 234.666667 138.666667v492.8z" p-id="65261"></path><path d="M522.666667 21.333333C693.333333 21.333333 832 72.533333 832 138.666667S693.333333 256 522.666667 256 213.333333 202.666667 213.333333 138.666667 352 21.333333 522.666667 21.333333z" fill="#FFBF80" p-id="65262"></path><path d="M522.666667 277.333333C362.666667 277.333333 192 228.266667 192 138.666667S362.666667 0 522.666667 0 853.333333 46.933333 853.333333 138.666667 682.666667 277.333333 522.666667 277.333333z m0-234.666666C343.466667 42.666667 234.666667 98.133333 234.666667 138.666667S343.466667 234.666667 522.666667 234.666667 810.666667 177.066667 810.666667 138.666667 701.866667 42.666667 522.666667 42.666667zM522.666667 448C358.4 448 192 403.2 192 320h42.666667c0 34.133333 113.066667 85.333333 288 85.333333 177.066667 0 288-51.2 288-85.333333h42.666666c0 83.2-166.4 128-330.666666 128zM522.666667 597.333333C358.4 597.333333 192 552.533333 192 469.333333h42.666667c0 34.133333 113.066667 85.333333 288 85.333334 177.066667 0 288-51.2 288-85.333334h42.666666c0 83.2-166.4 128-330.666666 128z" p-id="65263"></path></svg>