<?xml version="1.0" standalone="no"?><!DOCTYPE svg PUBLIC "-//W3C//DTD SVG 1.1//EN" "http://www.w3.org/Graphics/SVG/1.1/DTD/svg11.dtd"><svg t="1678457646035" class="icon" viewBox="0 0 1024 1024" version="1.1" xmlns="http://www.w3.org/2000/svg" p-id="83490" xmlns:xlink="http://www.w3.org/1999/xlink" width="16" height="16"><path d="M959.9 512c0 100-146.5 120.8-212 209-101 136-81.3 239-236 239C264.5 960 64 759.4 64 512c0-151.1 24.8-202.6 139.4-283.8C276.4 176.4 218.3 64 512 64c247.4 0 447.9 200.6 447.9 448z" fill="#DFBE7A" p-id="83491"></path><path d="M514.8 960l-0.3-30.9c10.2-0.1 19.8-0.7 28.5-1.9l4.2 30.6c-9.9 1.4-20.8 2.1-32.4 2.2z m-31.6-0.9c-10.5-0.7-21.1-1.7-31.5-3.1l4.1-30.6c9.7 1.3 19.5 2.3 29.3 2.9l-1.9 30.8z m-62.7-8.4c-10.3-2.1-20.6-4.7-30.7-7.5l8.4-29.7c9.4 2.7 19 5 28.6 7l-6.3 30.2z m159.3-0.5L569.7 921c8.7-3 16.4-6.8 23.4-11.7l17.6 25.4c-9.4 6.5-19.5 11.6-30.9 15.5z m-220.2-16.8c-9.9-3.6-19.8-7.6-29.4-11.8l12.5-28.2c9 4 18.2 7.7 27.4 11l-10.5 29z m276.5-22l-23.6-19.9c5.3-6.4 10.5-13.9 15.9-22.9l26.7 15.6c-6.4 10.6-12.5 19.5-19 27.2z m-334.4-3.7c-9.3-4.9-18.5-10.3-27.4-15.9l16.4-26.2c8.3 5.2 16.9 10.2 25.5 14.8l-14.5 27.3z m-53.6-33.6c-8.5-6.2-16.9-12.8-24.9-19.6l19.9-23.6c7.5 6.3 15.3 12.4 23.2 18.2l-18.2 25z m421.7-17.9L642 842.6c3.2-6.6 6.5-13.4 9.9-20.6l3.2-6.8 27.9 13.3-3.2 6.7c-3.4 7.3-6.7 14.2-10 21z m-470.1-22.9c-7.5-7.3-14.9-15-21.9-22.8l23-20.6c6.5 7.3 13.4 14.5 20.4 21.3l-21.5 22.1z m496.6-32l-27.6-13.9c5-9.9 9.8-18.9 14.7-27.6l26.9 15.2c-4.6 8.2-9.2 16.8-14 26.3z m-538.7-15.2c-6.4-8.3-12.7-16.9-18.5-25.7l25.7-17.2c5.4 8.1 11.2 16.2 17.2 23.9l-24.4 19z m568.1-36.5l-25.9-16.8c5.7-8.9 11.8-17.6 18-25.9l24.8 18.4c-5.9 7.9-11.6 16-16.9 24.3z m-603.2-16c-5.2-9.1-10.1-18.6-14.7-28l27.9-13.4c4.2 8.8 8.8 17.6 13.7 26.1l-26.9 15.3z m638.3-30.1l-22.1-21.6c7.2-7.4 15.1-14.5 24.2-21.7l19.3 24.1c-8.2 6.5-15.2 12.8-21.4 19.2zM95.1 676.6c-3.9-9.8-7.4-19.8-10.6-29.8l29.5-9.3c2.9 9.3 6.2 18.7 9.8 27.8l-28.7 11.3z m710.7-9.5l-17.3-25.6c7.6-5.2 16-10.5 26.3-16.8L831 651c-9.9 6-17.9 11.2-25.2 16.1z m51.3-31.9l-16-26.4c8.2-5 17-10.4 25.5-15.9l16.9 25.9c-8.9 5.7-18.3 11.5-26.4 16.4z m-781-19c-2.4-10.2-4.5-20.7-6.2-31l30.5-5c1.6 9.7 3.5 19.4 5.8 28.9l-30.1 7.1z m833.5-16L890.5 576c8.2-6.5 14.8-12.7 20.3-18.9l23.3 20.3c-6.8 7.7-14.8 15.1-24.5 22.8zM65.9 553.8c-1-10.4-1.6-21.1-1.8-31.6l30.9-0.7c0.2 9.8 0.8 19.7 1.7 29.4l-30.8 2.9z m887.1-6.2l-28.5-11.9c3.1-7.6 4.7-15.3 4.7-23.7v-2.3l30.9-0.1v2.4c-0.1 12.4-2.5 24.4-7.1 35.6z m-858-56l-30.9-0.6c0.2-11.2 0.6-21.4 1.1-31.1l30.8 1.8c-0.4 9.3-0.8 19.1-1 29.9z m832.9-11.3c-0.7-9.8-1.8-19.6-3.2-29.3l30.6-4.5c1.5 10.4 2.7 21 3.5 31.5l-30.9 2.3zM98.6 432.2L68 428.5c1.3-11.3 3-21.7 5.1-31.5l30.2 6.4c-1.9 9-3.4 18.4-4.7 28.8zM919.4 422c-2.1-9.5-4.6-19.1-7.3-28.5l29.6-8.8c3 10.1 5.6 20.4 7.9 30.7l-30.2 6.6z m-808.5-46.1l-29.1-10.3c3.7-10.6 8.1-20.5 13.3-30.1l27.2 14.7c-4.4 8.2-8.2 16.6-11.4 25.7z m791.8-10.4c-3.4-9.1-7.2-18.3-11.3-27.2l28.1-12.9c4.4 9.6 8.5 19.4 12.1 29.2l-28.9 10.9z m-765.1-38.8L113 308c6.3-8.3 13.3-16.3 21.3-24.5l22.1 21.6c-7.2 7.3-13.3 14.3-18.8 21.6z m740.6-14.6c-4.7-8.6-9.7-17.1-15-25.3l26-16.7c5.7 8.8 11.1 18 16.2 27.2l-27.2 14.8z m-700.5-26.8l-20.1-23.5c7.5-6.4 15.5-12.8 24.5-19.7l18.7 24.6c-8.5 6.5-16.1 12.6-23.1 18.6z m668.6-22.8c-5.9-7.8-12.1-15.6-18.5-23l23.4-20.2c6.9 8 13.5 16.2 19.8 24.7l-24.7 18.5z m-620.9-13.8L206.9 224c6.7-5 12.3-10.9 17.7-18.5l25.2 17.9c-7.3 10.1-15.2 18.4-24.4 25.3z m582.4-30.8c-6.9-6.9-14.1-13.7-21.5-20.2l20.3-23.3c7.9 6.9 15.7 14.2 23.1 21.6l-21.9 21.9z m-541.6-22.7L238.8 181l1.6-3c4.2-8 8.5-16.3 13.7-24.7l26.3 16.3c-4.6 7.4-8.6 15.2-12.5 22.7l-1.7 2.9z m497.3-16c-7.8-5.9-15.9-11.6-24.1-17l16.9-25.9c8.8 5.7 17.5 11.9 25.9 18.2l-18.7 24.7z m-466.7-31.3l-22.3-21.4c7.8-8.1 16.4-15.2 26.3-21.5l16.7 26c-7.7 4.9-14.5 10.5-20.7 16.9z m417.3-0.9c-8.6-4.8-17.4-9.3-26.3-13.4l13-28c9.5 4.4 19 9.3 28.2 14.4l-14.9 27z m-53.5-24.9c-9.1-3.5-18.5-6.7-27.9-9.5l8.9-29.6c10.1 3 20.2 6.5 30 10.2l-11 28.9z m-318.4-3.8l-11.7-28.6c9.4-3.8 19.7-7.3 30.8-10.2l8 29.8c-9.8 2.7-18.9 5.7-27.1 9z m262-13.2c-9.5-2.2-19.3-4-28.9-5.5l4.6-30.5c10.4 1.6 20.9 3.6 31.1 5.9l-6.8 30.1z m-206.5-2l-5.3-30.4c9.8-1.7 20.3-3.2 31.2-4.4L427 99c-10.3 1.1-20.1 2.5-29.3 4.1z m58.9-6.6l-1.9-30.8c9.9-0.6 20.4-1.1 31.1-1.3l0.8 30.9c-10.4 0.2-20.4 0.6-30 1.2z m89.4-0.3c-9.7-0.8-19.6-1.2-29.4-1.3l0.3-30.9c10.5 0.1 21.2 0.6 31.6 1.4L546 96.2zM183.7 425.7s101.4-174.5 189.2 0c66.8 133-317.4 282.9-189.2 0z" fill="#CE6043" p-id="83492"></path><path d="M689.8 662.4c-11.6 56.1-64.3 260.5-203 191.1-1-0.5-2-1.1-2.9-1.7C466.7 841 328.1 745.6 556.5 604c11.2-6.9 17.4-19.5 16.2-32.6-3.9-42.1-2.1-138.1 82.2-204.2 97.7-76.6 324.9 90.5 49.5 273.5-7.5 5.1-12.7 12.9-14.6 21.7z" fill="#497CAD" p-id="83493"></path><path d="M622.7 209.1h-0.4 0.4zM624 209h-1.1-0.5c-5.5 0.5-47.7 5.6-88.7 44.3-24.7 23.3-44.1 54.2-57.6 91.7-16.5 45.7-24.2 101.7-23 166.2 1 52.6-31.7 112.9-81.4 149.9-41.1 30.7-86.1 40.4-126.8 27.5-8.4-2.7-17.4 2-20.1 10.4-2.7 8.4 2 17.4 10.4 20.1 14.8 4.7 30 7.1 45.5 7.1 12.1 0 24.3-1.4 36.7-4.3 25.5-6 50.2-17.8 73.5-35.1 27.8-20.8 51.5-48 68.3-78.8 17.5-32 26.5-65.6 25.9-97.3-2-106.4 21.9-186.8 69-232.5 33.7-32.7 68.7-37 71.1-37.2 8.3-0.6 14.9-7.5 14.9-16-0.1-8.8-7.3-16-16.1-16z" fill="#669E8B" p-id="83494"></path></svg>