<?xml version="1.0" standalone="no"?><!DOCTYPE svg PUBLIC "-//W3C//DTD SVG 1.1//EN" "http://www.w3.org/Graphics/SVG/1.1/DTD/svg11.dtd"><svg t="1644305782503" class="icon" viewBox="0 0 1024 1024" version="1.1" xmlns="http://www.w3.org/2000/svg" p-id="3751" width="16" height="16" xmlns:xlink="http://www.w3.org/1999/xlink"><defs><style type="text/css"></style></defs><path d="M1006.22552 659.68a32 32 0 0 0-13.92-18.56 126.72 126.72 0 0 1-64-114.08v-14.88-14.88a125.6 125.6 0 0 1 0-22.08 32 32 0 1 0-64-8.96 191.04 191.04 0 0 0 0 33.28v25.12a190.08 190.08 0 0 0 69.44 153.76l-66.56 115.36a190.56 190.56 0 0 0-168.16 16.8c-7.2 4.48-14.56 8.8-21.92 12.64A189.28 189.28 0 0 0 578.54552 960h-133.12a189.28 189.28 0 0 0-97.76-136.64q-11.2-5.92-21.92-12.64a190.56 190.56 0 0 0-168.48-16.96l-66.56-115.52A190.08 190.08 0 0 0 160.30552 524.48v-25.12a190.08 190.08 0 0 0-69.44-153.76l66.56-115.36a190.56 190.56 0 0 0 168.16-16.8c7.2-4.48 14.56-8.8 21.92-12.64A189.28 189.28 0 0 0 445.42552 64h133.28a189.28 189.28 0 0 0 97.76 136.64q11.2 5.92 21.92 12.64a190.4 190.4 0 0 0 168.16 16.8L912.30552 308.16a32 32 0 0 0 55.36-32l-60.32-103.36a32 32 0 0 0-43.04-11.52 127.04 127.04 0 0 1-131.2-2.08c-8.48-5.28-17.28-10.4-25.92-15.04A126.24 126.24 0 0 1 640.30552 32a32 32 0 0 0-32-32H416.30552a32 32 0 0 0-32 32 126.24 126.24 0 0 1-66.4 112c-8.8 4.64-17.44 9.76-25.92 15.04a127.04 127.04 0 0 1-131.68 2.4 32 32 0 0 0-44.16 11.52L20.62552 339.2A32 32 0 0 0 32.30552 382.88a126.72 126.72 0 0 1 64 114.08v29.92a126.72 126.72 0 0 1-64 114.08 32 32 0 0 0-11.68 43.84l96 166.24a32 32 0 0 0 43.68 11.68 126.88 126.88 0 0 1 131.2 2.08c8.48 5.28 17.28 10.4 25.92 15.04A126.24 126.24 0 0 1 384.30552 992a32 32 0 0 0 32 32h192a32 32 0 0 0 32-32 126.24 126.24 0 0 1 66.4-112c8.8-4.64 17.44-9.76 25.92-15.04a127.04 127.04 0 0 1 130.88-2.24 32 32 0 0 0 44.16-11.52l96-166.24a32 32 0 0 0 2.56-25.28z" fill="#211B13" p-id="3752"></path><path d="M512.30552 320a192 192 0 1 0 192 192 192 192 0 0 0-192-192z m0 320a128 128 0 1 1 128-128 128 128 0 0 1-128 128z" fill="#FFB243" p-id="3753"></path></svg>