<?xml version="1.0" standalone="no"?><!DOCTYPE svg PUBLIC "-//W3C//DTD SVG 1.1//EN" "http://www.w3.org/Graphics/SVG/1.1/DTD/svg11.dtd"><svg t="1651485299152" class="icon" viewBox="0 0 1024 1024" version="1.1" xmlns="http://www.w3.org/2000/svg" p-id="2373" xmlns:xlink="http://www.w3.org/1999/xlink" width="16" height="16"><defs><style type="text/css">@font-face { font-family: feedback-iconfont; src: url("//at.alicdn.com/t/font_1031158_u69w8yhxdu.woff2?t=1630033759944") format("woff2"), url("//at.alicdn.com/t/font_1031158_u69w8yhxdu.woff?t=1630033759944") format("woff"), url("//at.alicdn.com/t/font_1031158_u69w8yhxdu.ttf?t=1630033759944") format("truetype"); }
</style></defs><path d="M913.1008 413.7472c-4.9664-42.1888-22.3232-60.8256-35.9936-73.2672 1.2288-37.2224 21.0944-84.4288-60.8256-85.6576-17.3568-3.7376-22.3232-18.6368-44.6976-38.5024s-85.6576-65.792-175.0528-68.3008c-67.0208-1.8432-363.008-3.7376-491.5712 364.9536-22.3232 84.4288 27.2896 182.4768 38.5024 198.6048 11.1616 16.128 18.6368 35.9936 14.8992 55.8592s11.4688 51.5072 49.2032 50.1248 31.1808-9.3184 68.4544 13.5168c37.2224 22.8352 191.488 123.8528 370.2272 8.3968 178.7392-115.4048 291.6864-197.3248 266.8544-425.728z" fill="#F5DD98" p-id="2374"></path><path d="M913.1008 413.7472c-4.9664-42.1888-22.3232-60.8256-35.9936-73.2672 9.3184 181.248-85.504 273.9712-188.672 353.792-162.2016 118.9888-359.3728 105.216-445.3888 1.8432-61.6448-74.1376-40.7552-277.9648-24.0128-387.328-43.8784 50.6368-83.6608 117.0944-114.0736 204.288-22.3232 84.4288 27.2896 182.4768 38.5024 198.6048 11.1616 16.128 18.6368 35.9936 14.8992 55.8592s11.4688 51.5072 49.2032 50.1248 31.1808-9.3184 68.4544 13.5168c37.2224 22.8352 191.488 123.8528 370.2272 8.3968 178.7392-115.5072 291.6864-197.4272 266.8544-425.8304z" fill="#EACA83" p-id="2375"></path><path d="M928.3584 411.9552c-4.7616-40.2944-19.968-62.2592-35.4816-77.6704 0.256-3.1744 0.6144-6.4512 0.9728-9.8304 2.2016-21.0432 4.7616-44.8512-11.4176-63.0784-12.3904-13.9776-33.3824-21.1456-64.1536-21.8624-5.12-1.4848-8.6528-5.3248-16.0768-13.7216-5.12-5.7856-11.4688-13.0048-20.3776-20.8896-18.2784-16.2304-85.5552-69.376-184.832-72.1408-82.5344-2.2528-159.8976 12.8-229.5296 44.9536-127.9488 58.88-221.1328 170.0352-276.992 330.2912-0.1536 0.3584-0.256 0.768-0.3584 1.1264-24.1152 91.136 29.184 194.7136 40.704 211.3024 6.0928 8.8064 15.8208 26.2656 12.4416 44.288-2.9696 15.9232 2.304 34.0992 13.7728 47.4112 3.4816 4.0448 7.5264 7.4752 11.8784 10.4448 0.4608 0.3584 0.9728 0.6656 1.4848 0.9216 10.7008 6.7072 23.552 10.0864 37.7344 9.5744 9.728-0.3584 16.8448-1.1264 22.016-1.7408 13.312-1.4848 14.1312-1.536 37.8368 12.9536l3.0208 1.8944c68.3008 42.1376 135.6288 63.1808 201.3696 63.1808 53.3504 0 105.6768-13.8752 156.6208-41.6768a15.34464 15.34464 0 0 0 6.144-20.8384 15.3856 15.3856 0 0 0-20.8384-6.144c-103.424 56.3712-213.504 49.3568-327.168-20.6848l-3.1232-1.9456c-30.0544-18.432-36.7104-19.5584-57.2416-17.3056-4.9664 0.5632-11.2128 1.2288-19.7632 1.536-4.8128 0.2048-9.1648-0.4096-13.1584-1.6384 3.2768-39.2704 27.6992-196.864 207.5136-376.7296 34.4576-34.4576 75.52-62.8224 122.0096-84.1728 7.68-3.5328 11.0592-12.6464 7.5264-20.3776a15.38048 15.38048 0 0 0-20.3776-7.5264c-49.8176 22.8864-93.8496 53.2992-130.9184 90.368-127.9488 127.9488-185.6512 254.208-206.7968 337.7664-3.2256-14.7968-10.1376-27.5968-16.7424-37.0688-9.5744-13.824-56.8832-106.7008-36.4032-185.3952 110.6944-316.5184 346.0608-357.7856 476.4672-354.0992 88.8832 2.4576 148.9408 49.92 165.2736 64.4096 7.5264 6.7072 13.0048 12.8512 17.8176 18.2784 4.3008 4.864 8.5504 9.6256 13.4144 13.6192-45.2096-1.4336-106.1888 0.8704-171.776 15.4112a15.36 15.36 0 1 0 6.656 30.0032c125.0816-27.7504 235.8784-8.2944 236.9536-8.0896h0.1024c0.4608 7.168-0.3584 15.5136-1.28 24.1152-0.6656 6.144-1.3312 12.4928-1.536 18.7392-0.1536 4.5056 1.6896 8.8576 5.0176 11.8784 12.8 11.6224 26.7776 27.0848 31.0784 63.5392 20.7872 191.1808-41.728 266.0352-199.3728 371.3536a15.34464 15.34464 0 0 0-4.2496 21.2992 15.34464 15.34464 0 0 0 21.2992 4.2496c77.0048-51.456 135.7824-97.9456 172.3904-157.6448 38.7072-63.1296 51.5584-140.2368 40.448-242.6368z" fill="#000F04" p-id="2376"></path><path d="M315.0336 623.9744c-2.7136 0-5.4784-0.7168-7.936-2.2528a15.3344 15.3344 0 0 1-5.1712-21.0944c153.4464-252.8768 356.1472-260.4544 364.6976-260.608a15.27808 15.27808 0 0 1 15.7184 15.0016 15.36512 15.36512 0 0 1-14.9504 15.7184c-2.4576 0.0512-195.1744 8.4992-339.2 245.8624-2.9184 4.7616-7.936 7.3728-13.1584 7.3728zM584.1408 528.0768a15.3088 15.3088 0 0 1-14.6944-10.9056c-2.4576-8.0896 2.0992-16.6912 10.24-19.1488 4.7104-1.4336 5.8368-2.4064 5.888-2.4576 0.3072-0.8192 0.768-5.3248 1.1264-8.96 0.5632-5.1712 1.2288-11.6736 2.816-19.712 1.8432-9.1648 7.0144-16.7936 15.0528-22.0672 21.6064-14.1824 58.4192-7.3216 65.5872-5.7856 8.2944 1.792 13.568 9.9328 11.8272 18.2272s-9.8816 13.6192-18.2272 11.8272c-12.288-2.56-34.2528-3.9424-42.3424 1.3824-1.4336 0.9216-1.6384 1.6384-1.792 2.4064-1.3312 6.656-1.8944 12.0832-2.4064 16.896-1.536 14.6944-3.1232 29.8496-28.672 37.5808-1.4336 0.512-2.9184 0.7168-4.4032 0.7168zM484.5056 583.0144c-1.5872 0-3.1744-0.256-4.7104-0.768a15.34976 15.34976 0 0 1-9.8816-19.3536c12.9536-40.0384 53.1456-47.36 54.8352-47.6672a15.36 15.36 0 0 1 5.2736 30.2592c-1.1776 0.2048-23.808 4.8128-30.9248 26.88a15.26784 15.26784 0 0 1-14.592 10.6496zM367.7696 673.4848c-1.9968 0-4.0448-0.0512-6.144-0.1536a15.36 15.36 0 1 1 1.792-30.6688c38.6048 2.2528 59.136-26.5728 60.0064-27.8016a15.4112 15.4112 0 0 1 21.3504-3.9424 15.36 15.36 0 0 1 4.096 21.248c-1.2288 1.6896-28.6208 41.3184-81.1008 41.3184zM372.3264 753.3056c-23.7056 0-47.4624-12.1856-50.4832-13.824a15.37024 15.37024 0 0 1-6.3488-20.7872 15.32416 15.32416 0 0 1 20.736-6.3488c6.5024 3.4304 28.16 12.544 41.8304 9.728 8.2944-1.6896 16.4352 3.584 18.176 11.8784a15.36 15.36 0 0 1-11.8784 18.176c-3.9936 0.8192-8.0384 1.1776-12.032 1.1776zM457.4208 741.5808c-4.4544 0-7.2192-0.3584-7.68-0.4096a15.36 15.36 0 0 1-13.056-17.3568 15.29856 15.29856 0 0 1 17.2544-13.056c1.536 0.1536 30.5664 3.2768 50.5344-25.2416a15.36 15.36 0 0 1 21.4016-3.7888 15.36 15.36 0 0 1 3.7888 21.4016c-23.9616 34.2528-57.2928 38.4512-72.2432 38.4512zM578.5088 685.3632c-2.0992 0-4.1984-0.4096-6.2464-1.3312a15.26272 15.26272 0 0 1-7.8336-20.0704c0.8192-1.8944 20.736-46.2336 76.4928-42.7008a15.36 15.36 0 1 1-1.8944 30.6688c-33.1776-1.9968-45.2096 21.76-46.4896 24.4736-2.56 5.5808-8.192 8.96-14.0288 8.96zM710.7072 619.3152a15.3088 15.3088 0 0 1-15.1552-13.1584c-1.2288-8.3456 4.5568-16.128 12.9024-17.408 0.6144-0.1024 27.8016-4.7104 31.9488-24.32a15.33952 15.33952 0 0 1 18.2272-11.8272c8.2944 1.7408 13.6192 9.9328 11.8272 18.2272-8.6528 40.704-55.5008 48.0256-57.4976 48.3328-0.7168 0.1024-1.4848 0.1536-2.2528 0.1536zM786.176 536.1664h-0.768a15.37024 15.37024 0 0 1-14.592-16.0256c0.1024-2.048 2.7136-50.5856 40.1408-66.2528 17.7152-7.424 16.7424-20.2752 16.7424-20.3776-0.9728-8.448 5.0688-16.0256 13.5168-16.9984 8.3968-1.024 16.0256 5.0688 16.9984 13.5168 1.536 13.2608-4.1984 39.168-35.3792 52.224-19.0976 8.0384-21.2992 39.0656-21.3504 39.3728a15.37536 15.37536 0 0 1-15.3088 14.5408zM803.84 340.9408h-26.0608c-8.4992 0-15.36-6.8608-15.36-15.36s6.8608-15.36 15.36-15.36H803.84c8.4992 0 15.36 6.8608 15.36 15.36s-6.8608 15.36-15.36 15.36zM376.5248 830.6688h-0.6656c-25.4976-1.0752-51.7632-16.2304-54.6816-17.9712a15.3088 15.3088 0 0 1-5.376-21.0432 15.39072 15.39072 0 0 1 21.0432-5.376c6.144 3.584 25.2928 13.1072 40.2944 13.7216 8.4992 0.3584 15.0528 7.5264 14.6944 15.9744a15.29856 15.29856 0 0 1-15.3088 14.6944zM468.9408 831.3856c-9.472 0-16.4352-0.6144-18.4832-0.768-8.448-0.8192-14.6432-8.2944-13.824-16.7424s8.2944-14.6944 16.7424-13.824c16.8448 1.536 55.9616 0.8192 68.9152-11.6224a15.36 15.36 0 0 1 21.7088 0.4608c5.888 6.144 5.6832 15.872-0.4608 21.7088-18.5344 17.7152-52.992 20.7872-74.5984 20.7872zM598.0672 785.0496c-3.3792 0-6.8096-1.1264-9.6256-3.3792a15.3088 15.3088 0 0 1-2.3552-21.5552c2.7648-3.4816 28.16-34.0992 58.7264-37.376 19.8656-2.1504 33.6384-13.1584 33.792-13.2608 6.5536-5.3248 16.2304-4.4032 21.5552 2.1504 5.376 6.5024 4.5056 16.128-1.9968 21.504-0.8192 0.6656-20.6848 16.9984-50.0736 20.1728-15.2064 1.6384-33.0752 19.8656-38.0928 26.112-2.9696 3.6864-7.424 5.632-11.9296 5.632zM764.7232 694.784c-1.9968 0-4.0448-0.4096-5.9904-1.2288a15.32416 15.32416 0 0 1-8.1408-20.1216c0.512-1.2288 13.2096-30.5152 42.4448-41.0624a15.37024 15.37024 0 0 1 10.3936 28.928c-16.4864 5.9392-24.4736 23.9616-24.576 24.1152-2.4064 5.8368-8.1408 9.3696-14.1312 9.3696zM850.3808 612.8128c-8.0384 0-14.7968-6.2976-15.3088-14.4384-1.024-16.384-1.2288-55.8592 18.0224-68.6592 6.0416-4.0448 13.2608-19.8144 16.0768-29.6448a15.3088 15.3088 0 0 1 19.0464-10.4448c8.1408 2.3552 12.8512 10.9056 10.4448 19.0464-1.6384 5.6832-10.7008 34.4064-28.16 46.3872-3.4816 4.5056-5.8368 24.4736-4.7616 41.5232 0.512 8.448-5.9392 15.7696-14.3872 16.2816-0.3072-0.0512-0.6656-0.0512-0.9728-0.0512zM362.5472 268.3392a15.3856 15.3856 0 0 1-13.7216-22.272c17.3568-34.7136 69.9392-39.68 75.8784-40.0896A15.36512 15.36512 0 0 1 441.1904 220.16a15.36 15.36 0 0 1-14.1312 16.4864c-10.5984 0.8192-42.5984 6.912-50.7392 23.1936a15.4368 15.4368 0 0 1-13.7728 8.4992zM299.2128 340.9408a15.34464 15.34464 0 0 1-2.304-30.5152c12.6976-1.9456 16.9984-22.7328 16.9984-22.9376 1.5872-8.2944 9.472-13.824 17.8688-12.288 8.2944 1.536 13.824 9.4208 12.3904 17.7152-2.7648 15.7696-14.8992 43.6224-42.5984 47.872-0.768 0.1024-1.5872 0.1536-2.3552 0.1536zM168.4992 607.8464h-0.9728a15.4112 15.4112 0 0 1-14.9504-15.7696 15.36 15.36 0 0 1 15.36-14.9504h0.2048c2.4064-0.0512 22.0672-1.1264 28.928-29.2352 10.9056-44.6464 74.0864-139.264 112.6912-168.704 6.7584-5.1712 16.384-3.84 21.5552 2.8672 5.12 6.7584 3.84 16.384-2.8672 21.5552-33.28 25.3952-92.1088 113.2544-101.4784 151.552-10.24 41.8304-42.1376 52.6848-58.4704 52.6848zM364.0832 358.2976a15.36 15.36 0 0 1-7.1168-28.9792c8.3968-4.4032 17.5104-10.0352 19.9168-12.3392a15.37024 15.37024 0 0 1 20.8384-3.584c7.0656 4.7104 8.96 14.2336 4.2496 21.2992-3.8912 5.888-14.2848 13.2608-30.8224 21.8624-2.2016 1.1776-4.6592 1.7408-7.0656 1.7408z m12.5952-41.0112c-0.1024 0.1536-0.2048 0.256-0.256 0.4096 0.1024-0.1536 0.2048-0.3072 0.256-0.4096zM443.2384 310.6304c-4.9664 0-9.8304-2.4064-12.8-6.8096-4.7104-7.0656-2.816-16.5888 4.2496-21.2992 4.3008-2.8672 107.4176-70.7584 232.4992-74.0864h0.4096c8.2944 0 15.104 6.6048 15.36 14.9504a15.37536 15.37536 0 0 1-14.9504 15.7696c-116.3264 3.072-215.296 68.2496-216.2688 68.9152-2.6112 1.7408-5.5808 2.56-8.4992 2.56z" fill="#000F04" p-id="2377"></path></svg>