<?xml version="1.0" standalone="no"?><!DOCTYPE svg PUBLIC "-//W3C//DTD SVG 1.1//EN" "http://www.w3.org/Graphics/SVG/1.1/DTD/svg11.dtd"><svg t="1651481991941" class="icon" viewBox="0 0 1024 1024" version="1.1" xmlns="http://www.w3.org/2000/svg" p-id="1922" xmlns:xlink="http://www.w3.org/1999/xlink" width="16" height="16"><defs><style type="text/css">@font-face { font-family: feedback-iconfont; src: url("//at.alicdn.com/t/font_1031158_u69w8yhxdu.woff2?t=1630033759944") format("woff2"), url("//at.alicdn.com/t/font_1031158_u69w8yhxdu.woff?t=1630033759944") format("woff"), url("//at.alicdn.com/t/font_1031158_u69w8yhxdu.ttf?t=1630033759944") format("truetype"); }
</style></defs><path d="M138.8032 796.9792H962.56l-11.9296-28.7232-48.9472-114.9952a262.2464 262.2464 0 0 0-17.5616-34.304c-52.9408-86.4256-142.7456-108.544-243.8144-108.544-257.4336 0-437.3504 192.3584-509.4912 285.696 2.7648 0.4608 5.0688 0.8704 7.9872 0.8704z" fill="#81CBFC" p-id="1923"></path><path d="M669.952 507.5968s112.384 17.1008 197.6832 289.4336c38.3488 2.7136 50.0224-2.7648 50.0224-2.7648l-75.4688-179.5072c-0.0512-0.0512-44.1344-91.7504-172.2368-107.1616z" fill="#6ABFEF" p-id="1924"></path><path d="M98.9184 854.0672h888.5248c6.8096 0 11.4688-6.8608 8.9088-13.2096l-15.5136-38.4512a9.5744 9.5744 0 0 0-8.9088-5.9904H126.1568c-3.0208 0-5.888 1.4336-7.68 3.84-12.1344 16.128-21.4016 29.5424-27.5968 38.9632-4.2496 6.3488 0.3584 14.848 8.0384 14.848z" fill="#419DF9" p-id="1925"></path><path d="M867.6352 803.2768l17.152 50.176 53.9136-3.584-18.0736-51.5584z" fill="#2F89EA" p-id="1926"></path><path d="M931.072 863.6928H61.44c-7.2704 0-13.8752-3.9936-17.3056-10.3424-3.4304-6.3488-3.072-14.08 0.9216-20.0704 5.632-8.4992 14.9504-22.1184 27.392-38.656 3.6864-4.9152 9.5744-7.8336 15.7184-7.8336h827.7504c8.0384 0 15.2064 4.8128 18.2272 12.288l15.1552 37.6832c2.4576 6.0416 1.7408 12.9024-1.9456 18.3296s-9.728 8.6016-16.2816 8.6016z m-868.096-20.48h866.816l-14.4896-35.9936H88.5248c-11.3664 15.1552-20.0192 27.7504-25.5488 35.9936z" fill="#010101" p-id="1927"></path><path d="M628.4288 506.4704s17.7152 257.7408-329.8816 129.7408c45.7728 32.3584 130.6624 98.9184 260.1984 53.6064 102.0416-37.4784 121.0368-117.248 120.832-179.3536-23.8592-4.7104-51.1488-3.9936-51.1488-3.9936z" fill="#6ABFEF" p-id="1928"></path><path d="M474.1632 713.3696c-98.2528 0-166.1952-51.9168-200.2944-86.1184a19.65056 19.65056 0 0 1-5.6832-15.8208c0.5632-5.8368 3.6352-11.008 8.448-14.2848 102.2976-69.376 210.1248-104.6016 320.6144-104.6016 27.2896 0 51.5584 1.5872 74.1376 4.9152 9.5232 1.3824 16.5888 9.4208 16.7424 19.0464 0.4608 27.4944-5.4784 166.0928-165.6832 192.8192-16.7936 2.7648-32.9216 4.0448-48.2816 4.0448z m-185.088-99.8912c36.9152 36.7616 115.3536 94.72 230.0416 75.6224 142.2336-23.7056 148.8896-145.2032 148.5824-171.52-21.4016-3.072-44.4416-4.5568-70.4512-4.5568-105.9328 0-209.6128 33.792-308.1728 100.4544z m-0.9216 0.6144z" fill="#010101" p-id="1929"></path><path d="M989.1328 457.0624c-29.952-51.2-141.9776-203.3152-398.0288-214.7328-221.1328-9.8304-390.656 55.3472-464.0768 117.8112 82.688-57.344 233.2672-111.9232 425.1648-111.9232 72.1408 0 133.3248 11.7248 184.7808 29.5424-253.9008-51.0464-467.968 59.8528-592.5376 149.8624 44.544 28.5696 81.1008 86.2208 58.9824 235.1104 99.1744-85.7088 244.224-171.9296 421.4272-164.0448 102.5024 4.5568 192.5632 31.744 242.2272 124.416l2.1504 4.1472-0.3584-5.4784s-10.9568-95.8976 115.968-151.3984c5.12-2.2528 7.1168-8.4992 4.3008-13.312z m-120.6272 6.3488c-4.1472 35.4304-36.9152 49.7152-63.9488 43.4176-0.512-0.1024-1.0752-0.3072-1.536-0.512-242.7392-99.2768-432.8448 1.792-488.3968 37.4272-10.0352 6.4512-23.7056 3.1232-29.184-7.424-43.8272-84.2752 77.9264-171.5712 281.7024-193.024 218.9312-23.04 305.5616 84.3264 301.3632 120.1152z" fill="#F7D53A" p-id="1930"></path><path d="M936.2944 422.912s-74.2912 44.1856-122.5728 134.5536c11.52 9.4208 22.1696 20.1728 31.8976 32.5632 8.3456-31.5392 34.6624-91.8528 116.992-135.424-10.0352-19.5584-26.3168-31.6928-26.3168-31.6928z" fill="#F4AD3B" p-id="1931"></path><path d="M931.072 863.6928H61.44c-7.2704 0-13.8752-3.9424-17.3056-10.3424-3.4304-6.3488-3.072-14.08 0.9216-20.0704 12.1344-18.3296 38.0928-55.3984 75.9808-97.9968 3.7376-4.2496 10.24-4.608 14.4384-0.8704 4.2496 3.7376 4.608 10.24 0.8704 14.4384-36.1472 40.6528-61.1328 76.032-73.3184 94.3104h866.816l-26.9824-66.9696-49.664-120.1664c-5.0688-12.3392-10.8544-23.9104-17.152-34.5088-44.6464-75.008-118.272-108.4928-238.7456-108.4928-190.6176 0-338.8416 110.0288-429.568 202.2912-3.9424 4.0448-10.4448 4.096-14.4896 0.1024-4.0448-3.9424-4.096-10.4448-0.1024-14.4896 93.4912-95.0784 246.4768-208.4352 444.2112-208.4352 79.7696 0 193.1264 12.288 256.3584 118.4768 6.8096 11.4176 13.056 23.9616 18.4832 37.1712l49.664 120.2688 27.4944 68.1984c2.4576 6.0416 1.7408 12.9024-1.9456 18.3296s-9.7792 8.7552-16.3328 8.7552z" fill="#010101" p-id="1932"></path><path d="M183.552 695.6544c-1.536 0-3.072-0.3584-4.5056-1.0752a10.20416 10.20416 0 0 1-5.632-10.24c6.9632-67.1744 3.1232-120.5248-11.4176-158.5152a10.24 10.24 0 0 1 5.888-13.2096 10.24 10.24 0 0 1 13.2096 5.888c13.9264 36.352 18.8416 82.8416 14.9504 141.6192 90.4704-80.2816 228.608-167.5776 401.2544-167.5776 73.1648 0 174.592 10.3424 239.6672 94.0032 4.864-35.1744 26.7776-93.952 113.3056-136.8064-30.0032-46.0288-144.896-191.2832-398.0288-191.2832-260.0448 0-438.1696 99.1744-477.7472 166.8608 27.136 8.704 55.296 20.3776 78.2848 45.824 3.7888 4.1984 3.4304 10.6496-0.768 14.4896-4.1984 3.7888-10.6496 3.4304-14.4896-0.768-19.968-22.1696-45.568-32.4608-70.1952-40.3456-5.6832-1.792-10.24-6.0416-12.3904-11.6224-2.1504-5.5296-1.7408-11.6224 1.1776-16.7424 40.8064-71.8848 226.6624-178.2272 496.128-178.2272 265.0624 0 385.28 154.2144 415.7952 201.5232 3.0208 4.7104 3.8912 10.4448 2.4064 15.872a19.5584 19.5584 0 0 1-10.24 12.3392c-116.1728 57.088-103.6288 144.7424-103.5264 145.6128 0.0512 0.1536 0.0512 0.3584 0.0512 0.512l0.5632 5.4784c0.512 4.8128-2.4064 9.3184-7.0144 10.8032-4.608 1.4848-9.6256-0.4608-12.032-4.6592l-0.8704-1.536c-0.4608-0.8192-0.8704-1.5872-1.3824-2.3552-44.6464-75.0592-118.272-108.4928-238.7456-108.4928-178.8416 0-319.8464 97.792-406.6816 179.8656-1.9456 1.8432-4.4544 2.7648-7.0144 2.7648z m93.7472-120.0128c-2.2016 0-4.4544-0.256-6.656-0.7168a30.52544 30.52544 0 0 1-19.712-14.336c-14.7968-25.6-15.7696-53.3504-2.816-80.2816 31.2832-65.024 139.7248-118.784 282.9824-140.3392 172.4416-25.9072 257.1776 32.512 285.6448 58.88 21.6064 20.0192 33.7408 41.8816 32.5632 58.624-1.3312 18.1248-9.1648 33.1776-22.6816 43.6224-14.08 10.8544-33.2288 15.3088-51.3536 11.9296-1.0752-0.2048-2.1504-0.512-3.1744-0.8704-84.6336-30.3104-170.1888-39.8336-254.208-28.2624-5.632 0.768-10.752-3.1232-11.52-8.7552s3.1744-10.752 8.7552-11.52c87.3472-11.9808 176.128-2.1504 263.936 29.2864 12.4416 2.3552 25.5488-0.6656 35.072-8.0384 8.8064-6.7584 13.8752-16.7424 14.7968-28.8768 0.6144-8.0896-7.3216-24.7296-26.0096-42.0864-26.2656-24.32-105.0624-78.2848-268.6464-53.6576-134.6048 20.224-239.616 70.8608-267.5712 128.9728-10.0352 20.8384-9.3184 41.4208 2.0992 61.1328 1.3824 2.3552 3.6352 3.9936 6.3488 4.608 2.9184 0.6144 5.9392 0 8.3968-1.6896 20.7872-14.6432 55.4496-36.1472 102.4512-55.1424 5.2736-2.0992 11.2128 0.4096 13.312 5.6832 2.0992 5.2224-0.4096 11.2128-5.6832 13.312-45.2096 18.2784-78.3872 38.8608-98.304 52.8896-5.376 3.6864-11.6736 5.632-18.0224 5.632z m155.7504-73.216a10.24 10.24 0 0 1-3.0208-20.0192c15.7696-4.864 31.8976-9.0112 47.9744-12.3904 5.5296-1.1776 10.9568 2.4064 12.1344 7.936 1.1776 5.5296-2.4064 10.9568-7.936 12.1344-15.4624 3.2256-30.976 7.2704-46.1312 11.9296-1.024 0.256-1.9968 0.4096-3.0208 0.4096z" fill="#010101" p-id="1933"></path><path d="M736.9728 277.76c-51.5072-17.8688-112.64-29.5424-184.7808-29.5424-261.632 0-446.6176 101.5296-487.2192 173.0048-2.9184 5.1712-0.256 11.7248 5.376 13.5168 11.8272 3.7888 24.2176 8.192 36.352 14.3872 3.328 1.6896 7.2192 1.4336 10.1376-0.8704 118.9376-92.3648 346.4704-225.536 620.1344-170.496z" fill="#F68F32" p-id="1934"></path><path d="M111.2064 460.4928c-3.072 0-6.1952-0.7168-9.1136-2.2016-12.1344-6.1952-24.4224-10.3936-34.816-13.7216a19.67104 19.67104 0 0 1-11.2128-28.3648c40.7552-71.8848 226.6624-178.2272 496.128-178.2272 67.1744 0 130.4576 10.1376 188.16 30.1056 5.0688 1.7408 7.936 7.168 6.5024 12.3904a10.22464 10.22464 0 0 1-11.8784 7.3216C462.1312 232.96 234.5472 369.8688 123.136 456.3456c-3.4816 2.7648-7.68 4.1472-11.9296 4.1472z m-36.7616-35.1744c10.3424 3.328 23.6032 7.936 36.608 14.5408 85.4016-66.2528 237.2608-161.1264 425.5744-181.2992-251.5968 3.84-423.424 100.4544-462.1824 166.7584z" fill="#010101" p-id="1935"></path><path d="M251.0848 288.256c-3.1232-8.6528-7.0144-19.4048-11.8784-32.768-1.6896-4.6592-6.656-7.2704-11.4176-5.888-64.6144 18.944-99.9424 45.312-113.5616 57.2928-3.84 3.3792-4.1984 9.2672-0.8704 13.1584l21.7088 25.1392c3.0208 3.4816 8.0896 4.2496 12.032 1.8432 27.2896-16.64 60.3136-32.6656 98.304-46.7968 4.9152-1.792 7.4752-7.1168 5.6832-11.9808z" fill="#F76439" p-id="1936"></path><path d="M142.1824 358.7072c-5.5296 0-11.008-2.3552-14.848-6.8096l-21.7088-25.1392c-7.0144-8.1408-6.1952-20.48 1.8432-27.5456 15.872-13.9776 52.2752-40.3456 117.4528-59.4432 9.9328-2.8672 20.3776 2.4576 23.9104 12.2368l11.8784 32.768c3.6352 10.0352-1.5872 21.2992-11.6736 25.0368-36.0448 13.4144-68.5056 28.8768-96.5632 45.9776-3.2256 1.9968-6.7584 2.9184-10.2912 2.9184z m-20.48-44.6976l20.6848 23.9616c28.8256-17.5104 62.1056-33.3312 98.7648-47.0528l-11.3152-31.232c-61.952 18.2784-95.8464 43.6224-108.1344 54.3232z m119.7568-22.272z" fill="#010101" p-id="1937"></path><path d="M236.4416 346.8288c-3.9424 0-7.7312-2.304-9.3696-6.144-2.2528-5.1712 0.1024-11.2128 5.3248-13.4656 12.6464-5.4784 25.4464-10.4448 38.0928-14.7456 5.376-1.8432 11.1616 1.0752 13.0048 6.4 1.8432 5.376-1.024 11.1616-6.4 13.0048-12.0832 4.096-24.3712 8.8576-36.5056 14.1312-1.3824 0.512-2.7648 0.8192-4.1472 0.8192zM109.9776 424.4992c-2.816 0-5.632-1.1264-7.6288-3.4304-3.7888-4.1984-3.4304-10.7008 0.8192-14.4384 1.4336-1.28 35.3792-31.4368 91.136-61.1328a10.24 10.24 0 0 1 13.8752 4.2496 10.24 10.24 0 0 1-4.2496 13.8752c-53.4528 28.416-86.784 58.0096-87.0912 58.3168-1.9968 1.7408-4.4032 2.56-6.8608 2.56zM446.3104 591.9744c-3.8912 0-7.6288-2.2528-9.3184-6.0416a10.22976 10.22976 0 0 1 5.12-13.568c37.6832-17.0496 73.984-28.9792 107.9296-35.4304 5.5296-1.024 10.9056 2.6112 11.9808 8.1408s-2.6112 10.9056-8.1408 11.9808c-32.3584 6.144-67.1232 17.6128-103.3216 33.9968-1.3824 0.6144-2.816 0.9216-4.2496 0.9216zM368.64 634.112c-3.2768 0-6.5024-1.5872-8.4992-4.5056-3.1744-4.7104-1.9456-11.0592 2.7648-14.2336 0.4096-0.256 9.728-6.5536 25.6512-15.616 4.9152-2.816 11.1616-1.0752 13.9776 3.7888s1.0752 11.1616-3.7888 13.9776c-15.2064 8.704-24.2688 14.7456-24.32 14.848-1.8432 1.1776-3.84 1.7408-5.7856 1.7408zM219.5456 768.4608c-2.048 0-4.1472-0.6144-5.9904-1.9456a10.24 10.24 0 0 1-2.3552-14.2848c33.8432-47.1552 69.3248-73.8816 70.8096-75.008 4.5056-3.3792 10.9568-2.4576 14.336 2.0992 3.3792 4.5056 2.4576 10.9568-2.048 14.336-0.3584 0.256-34.5088 26.112-66.4576 70.5536-1.9456 2.7648-5.0688 4.2496-8.2944 4.2496z" fill="#FFFFFF" p-id="1938"></path></svg>