<?xml version="1.0" standalone="no"?><!DOCTYPE svg PUBLIC "-//W3C//DTD SVG 1.1//EN" "http://www.w3.org/Graphics/SVG/1.1/DTD/svg11.dtd"><svg t="1649251659897" class="icon" viewBox="0 0 1024 1024" version="1.1" xmlns="http://www.w3.org/2000/svg" p-id="1669" xmlns:xlink="http://www.w3.org/1999/xlink" width="16" height="16"><defs><style type="text/css"></style></defs><path d="M402.688 263.424s62.2592-198.0416 96.3072-205.8752 93.9008 197.0688 93.9008 197.0688l-190.208 8.8064z" fill="#BFE5BD" p-id="1670"></path><path d="M402.688 278.784a15.37536 15.37536 0 0 1-14.6944-19.968c0.1536-0.512 15.9744-50.5856 35.7376-101.0176C461.312 62.1568 481.1264 45.8752 495.5648 42.5472c20.5824-4.7104 41.6768 11.3152 77.5168 105.0624 19.2 50.2272 34.4064 102.144 34.56 102.656 1.3312 4.5056 0.512 9.4208-2.2528 13.2096-2.7648 3.84-7.0656 6.1952-11.776 6.4l-190.208 8.8064c-0.2048 0.1024-0.4608 0.1024-0.7168 0.1024z m98.4576-205.2096c-16.64 13.1072-50.8928 94.72-77.0048 173.4656l148.4288-6.8608c-25.4976-82.7904-56.32-154.9312-71.424-166.6048z m1.9456-1.28z" fill="#000F04" p-id="1671"></path><path d="M644.864 299.6736s32.8704-88.1664 32.6144-159.4368c0-7.6288 9.5232-11.1104 14.4896-5.376 48.5888 56.2688 107.264 171.4176 67.584 283.4432-33.3312-57.856-114.688-118.6304-114.688-118.6304z" fill="#BFE5BD" p-id="1672"></path><path d="M759.552 433.664c-5.4784 0-10.5472-2.9184-13.312-7.68-31.3856-54.4768-109.824-113.408-110.592-113.9712-5.4784-4.096-7.5776-11.264-5.2224-17.664 0.3072-0.8704 31.8976-86.4768 31.6928-154.0096a23.33696 23.33696 0 0 1 15.3088-22.1184c9.3696-3.4816 19.6096-0.8704 26.1632 6.656 57.6512 66.7648 110.6944 185.0368 70.4512 298.5984a15.44192 15.44192 0 0 1-13.056 10.1888h-1.4336zM663.04 294.3488c18.2272 14.4384 60.1088 49.3568 90.4192 87.9616 16.6912-88.064-24.9856-174.1312-61.2352-222.6176-3.6352 54.0672-21.2992 111.3088-29.184 134.656z" fill="#000F04" p-id="1673"></path><path d="M764.4672 542.976s84.992-68.7104 116.5312-124.672c3.6864-6.5536 13.6192-4.7616 14.9504 2.6624 14.1312 81.408 26.5728 236.1344-116.736 305.152-64.7168-7.7824-14.7456-183.1424-14.7456-183.1424z" fill="#BFE5BD" p-id="1674"></path><path d="M779.1616 741.5296c-0.6144 0-1.2288-0.0512-1.8432-0.1024-13.7216-1.6896-25.1904-8.8064-33.024-20.6848-31.5904-47.5648 1.536-168.3456 5.4272-181.9648 0.8704-3.0208 2.6624-5.7344 5.12-7.7312 0.8192-0.6656 83.0976-67.5328 112.7936-120.2688 4.9152-8.704 14.4384-13.2096 24.32-11.52 9.9328 1.6896 17.4592 9.216 19.1488 19.0976 27.7504 160.0512-14.3872 268.2368-125.184 321.6384-2.1504 1.024-4.4544 1.536-6.7584 1.536z m-1.1776-189.7472c-12.7488 46.9504-25.4464 125.8496-8.0896 151.9616 2.0992 3.1232 4.4032 5.12 7.3216 6.2464 89.2416-45.4144 125.0304-135.2704 106.5472-267.3664-32.8192 47.104-90.2656 96.256-105.7792 109.1584z" fill="#000F04" p-id="1675"></path><path d="M239.9744 556.544s-92.16-79.4112-114.688-146.0736c-28.416 79.4112 4.9152 304.896 104.9088 335.3088 25.4464-70.6048 9.7792-189.2352 9.7792-189.2352z" fill="#BFE5BD" p-id="1676"></path><path d="M230.144 761.1392c-1.4848 0-2.9696-0.2048-4.4544-0.6656-32.8192-9.984-60.672-37.3248-82.7904-81.3568-43.52-86.528-52.8384-215.9104-32.1024-273.8176a15.40608 15.40608 0 0 1 14.4384-10.1888h0.1536c6.5536 0.0512 12.3392 4.2496 14.4384 10.4448 20.9408 61.952 109.312 138.5984 110.1824 139.3664 2.8672 2.4576 4.7104 5.888 5.2224 9.6256 0.6656 5.0176 15.872 123.1872-10.5984 196.4544a15.4624 15.4624 0 0 1-14.4896 10.1376zM131.7376 457.6768c-4.7616 59.3408 7.7312 146.2272 38.6048 207.616 10.496 20.8384 27.136 46.3872 50.1248 59.5968 14.6944-57.856 7.3216-138.8544 4.9152-160.7168-15.0528-13.4656-63.0784-58.2144-93.6448-106.496z" fill="#000F04" p-id="1677"></path><path d="M253.0304 380.928c-26.1632 37.7344-213.1456 530.5344 279.04 557.9776 92.16-3.0208 175.872-52.0704 231.68-127.2832 9.3696-12.6464 17.9712-26.0096 25.6512-40.0384 46.2848-84.1728 60.672-191.5392 23.0912-301.4656C774.6048 353.28 658.5344 208.1792 512 205.568 365.4656 202.9568 253.0304 380.928 253.0304 380.928z" fill="#EF81AE" p-id="1678"></path><path d="M515.1744 954.4704c-144.3328 0-243.6096-48.128-294.8608-143.1552-88.32-163.6352-1.1264-407.808 19.8656-438.8864 6.6048-10.3936 118.272-182.3232 268.5952-182.3232 1.1776 0 2.3552 0 3.5328 0.0512 147.3536 2.6112 272.2304 143.7184 314.88 275.2 36.352 106.24 30.3616 216.576-16.8448 310.4256-7.4752 14.8992-11.4688 21.0432-20.0704 33.536a15.36 15.36 0 0 1-21.3504 3.9424 15.32416 15.32416 0 0 1-3.9424-21.3504c8.0896-11.7248 11.264-16.64 17.92-29.952 43.4688-86.4256 48.8448-188.3136 15.1552-286.9248-39.424-121.5488-153.1392-251.8016-286.2592-254.1568-0.9728 0-1.9456-0.0512-2.9184-0.0512-134.9632 0-241.7152 166.5536-242.7904 168.2432-0.1024 0.2048-0.256 0.3584-0.3584 0.5632-16.128 23.296-98.304 258.816-18.2784 407.0912 47.3088 87.7056 143.0528 130.4064 284.3648 126.8224 71.5776 0 136.8064-26.5728 189.0816-76.8a15.36 15.36 0 0 1 21.7088 0.4096 15.36 15.36 0 0 1-0.4096 21.7088c-57.2416 55.04-131.84 85.3504-209.9712 85.3504-5.8368 0.2048-11.4688 0.256-17.0496 0.256z" fill="#000F04" p-id="1679"></path><path d="M366.5408 375.8592c-5.5808-19.5072-24.9344-91.648-25.2928-156.8256-0.0512-13.7216-18.0224-19.1488-25.6-7.68-48.2304 73.0112-73.0112 185.088-65.4336 271.36 0.6144 6.7584 9.5232 8.8576 13.0048 3.0208 14.848-24.8832 46.5408-68.9664 100.1984-101.9904 2.7136-1.6896 3.9936-4.864 3.1232-7.8848zM345.1904 618.3424s20.2752-131.072 99.9936-137.5744c4.5568 64.7168 18.2784 130.7136 18.2784 130.7136s-66.6624-20.9408-118.272 6.8608zM606.6176 519.3216s32.0512-88.2176 9.7792-148.3776c40.0896 17.92 109.1584 91.4944 101.3248 151.6544-34.6112-11.1616-79.7184-20.2752-111.104-3.2768zM373.2992 824.5248s130.3552-110.4384 141.9776-132.6592c30.9248 27.4944 83.2 99.328 148.736 122.2144-51.5072 28.1088-180.9408 62.1056-290.7136 10.4448z" fill="#BFE5BD" p-id="1680"></path><path d="M252.9792 520.2944a15.4112 15.4112 0 0 1-15.1552-12.8512c-17.3056-105.0624 17.7664-247.7568 79.8208-324.9152 6.144-7.6288 16.384-10.2912 25.4464-6.7584 9.1648 3.584 14.848 12.5952 14.1824 22.4256-5.4272 76.7488 25.1392 177.2032 25.4464 178.2272a15.36 15.36 0 0 1-10.1376 19.2c-8.1408 2.5088-16.6912-2.048-19.2-10.1376-1.1776-3.84-26.0608-85.5552-27.392-161.6384-46.5408 73.5744-72.0384 192-57.8048 278.5792 1.3824 8.3456-4.3008 16.2816-12.6464 17.664-0.8704 0.1024-1.6896 0.2048-2.56 0.2048zM341.9136 633.6512h-0.8704a15.3088 15.3088 0 0 1-14.4384-16.1792c0.0512-1.3312 8.8576-135.5264 125.3376-164.7104 5.0688-1.28 10.3936 0.1024 14.1824 3.6352 3.7888 3.5328 5.5808 8.7552 4.6592 13.8752-7.5776 43.1104-1.1776 108.8 6.8096 127.1808 3.3792 7.7824-0.2048 16.8448-7.936 20.224-7.7824 3.4304-16.8448-0.2048-20.224-7.936-9.1648-21.1456-15.0528-74.7008-11.8784-119.6032-73.728 33.4336-80.0256 124.8768-80.2816 129.0752a15.40608 15.40608 0 0 1-15.36 14.4384zM725.248 534.6816c-7.9872 0-14.7456-6.1952-15.3088-14.2848-3.6864-52.48-42.0352-107.7248-79.104-132.096 11.8784 66.1504-12.6976 126.6688-13.9264 129.5872a15.3856 15.3856 0 0 1-20.0704 8.2944c-7.8336-3.2256-11.52-12.2368-8.2944-20.0704 0.3072-0.7168 29.5936-73.472 4.7104-139.264-1.9968-5.2736-0.9728-11.1616 2.7136-15.4112 3.6352-4.2496 9.3184-6.1952 14.848-5.0176 60.3136 12.7488 124.5696 97.8432 129.792 171.776a15.32416 15.32416 0 0 1-14.2336 16.384c-0.4096 0.0512-0.768 0.1024-1.1264 0.1024zM373.2992 833.5872c-5.0176 0-9.984-2.4576-12.9024-7.0144-4.608-7.1168-2.56-16.64 4.5568-21.248 1.024-0.6656 103.7312-67.7376 130.2016-126.2592a23.9104 23.9104 0 0 1 20.9408-14.08c9.216-0.256 17.4592 4.4544 21.8112 12.4416 33.1776 61.184 87.9616 110.08 127.488 113.8176 8.448 0.768 14.6432 8.2944 13.8752 16.7424a15.44704 15.44704 0 0 1-16.7424 13.8752c-55.1424-5.1712-112.2304-63.1296-145.3056-118.6816-36.1984 63.0272-131.328 125.1328-135.5776 127.8976-2.6112 1.6896-5.4784 2.5088-8.3456 2.5088z" fill="#000F04" p-id="1681"></path></svg>