<?xml version="1.0" standalone="no"?><!DOCTYPE svg PUBLIC "-//W3C//DTD SVG 1.1//EN" "http://www.w3.org/Graphics/SVG/1.1/DTD/svg11.dtd"><svg t="1649251495636" class="icon" viewBox="0 0 1024 1024" version="1.1" xmlns="http://www.w3.org/2000/svg" p-id="2635" xmlns:xlink="http://www.w3.org/1999/xlink" width="16" height="16"><defs><style type="text/css">@font-face { font-family: feedback-iconfont; src: url("//at.alicdn.com/t/font_1031158_u69w8yhxdu.woff2?t=1630033759944") format("woff2"), url("//at.alicdn.com/t/font_1031158_u69w8yhxdu.woff?t=1630033759944") format("woff"), url("//at.alicdn.com/t/font_1031158_u69w8yhxdu.ttf?t=1630033759944") format("truetype"); }
</style></defs><path d="M706.1504 165.0176c-5.4272-14.9504-16.8448-24.4736-29.3888-24.4736H395.5712c-12.6976 0-24.2688 9.7792-29.5936 25.088l-39.6288 113.8176h421.2736l-41.472-114.432zM415.1296 247.0912l12.3392-34.4064c3.3792-9.3184 11.7248-15.9744 21.248-16.0768H624.4352c9.4208 0.0512 17.7152 6.5024 21.248 15.616l13.6192 34.8672H415.1296z" fill="#FA9136" p-id="2636"></path><path d="M708.864 289.6384H287.5904a10.24 10.24 0 0 1-9.6768-13.6192l39.6288-113.7664c6.7584-19.4048 22.1696-31.9488 39.2704-31.9488h281.2416c16.7936 0 32.1024 12.2368 39.0144 31.232l41.472 114.3808c1.1264 3.1232 0.6656 6.656-1.2288 9.3696-1.9968 2.7136-5.12 4.352-8.448 4.352z m-406.8864-20.48h392.2432l-36.4544-100.6592c-3.8912-10.752-11.6736-17.7152-19.7632-17.7152H356.8128c-8.2432 0-16.0768 7.168-19.9168 18.2272l-34.9184 100.1472z m318.5152-11.8272H376.3712c-3.328 0-6.4512-1.6384-8.3968-4.352-1.9456-2.7136-2.4064-6.1952-1.28-9.3696l12.3392-34.4064c4.864-13.568 17.2544-22.7328 30.8224-22.8352h175.5136c13.7728 0.1024 25.856 8.7552 31.0272 22.1184l13.6192 34.8672c1.2288 3.1744 0.8192 6.7072-1.0752 9.472-1.8944 2.816-5.0688 4.5056-8.448 4.5056z m-229.5808-20.48h214.5792l-8.1408-20.8896c-2.0992-5.376-6.8608-9.0624-11.8272-9.0624H410.2144c-5.1712 0.0512-9.8816 3.7888-11.8272 9.2672l-7.4752 20.6848z" fill="#010101" p-id="2637"></path><path d="M883.8144 279.3984H190.1056c-45.2608 0-81.92 36.6592-81.92 81.92v461.4144c0 45.2608 36.6592 81.92 81.92 81.92h693.7088c45.2608 0 81.92-36.6592 81.92-81.92V361.3184c0-45.2608-36.6592-81.92-81.92-81.92z m-394.24 540.5696c-119.8592 0-216.9856-101.6832-216.9856-227.1232s97.1776-227.1232 216.9856-227.1232c119.8592 0 216.9856 101.6832 216.9856 227.1232 0.0512 125.44-97.1264 227.1232-216.9856 227.1232z" fill="#FD3955" p-id="2638"></path><path d="M752.3328 279.3984s103.2704 20.5312 103.2704 74.5472v466.0224s13.056 84.6848-112.4352 84.6848c103.2704 0 175.1552-2.7136 175.1552-97.1264V352s3.9424-95.8464-165.9904-72.6016z" fill="#E51345" p-id="2639"></path><path d="M299.4176 592.8448a232.2432 221.9008 90 1 0 443.8016 0 232.2432 221.9008 90 1 0-443.8016 0Z" fill="#FA9136" p-id="2640"></path><path d="M526.1824 374.8352s141.824 76.7488 141.824 215.3472-82.2272 207.0016-118.0672 220.8256c89.0368-53.4528 160.5632-79.5648 169.0624-218.1632-11.008-71.68-20.8896-172.9024-192.8192-218.0096z" fill="#F76439" p-id="2641"></path><path d="M489.5744 830.208c-132.1472 0-239.6672-106.496-239.6672-237.3632s107.52-237.3632 239.6672-237.3632 239.6672 106.496 239.6672 237.3632-107.52 237.3632-239.6672 237.3632z m0-454.2464c-120.832 0-219.1872 97.28-219.1872 216.8832s98.304 216.8832 219.1872 216.8832 219.1872-97.28 219.1872-216.8832-98.304-216.8832-219.1872-216.8832z" fill="#010101" p-id="2642"></path><path d="M395.008 592.8448a98.9696 94.5664 90 1 0 189.1328 0 98.9696 94.5664 90 1 0-189.1328 0Z" fill="#F7D53A" p-id="2643"></path><path d="M502.6816 499.3536s56.8832 37.888 56.8832 90.8288-10.0864 73.216-47.5136 96.768c27.904-3.9424 75.9296-42.4448 76.1344-88.2176s-33.8944-108.544-85.504-99.3792z" fill="#F2B53D" p-id="2644"></path><path d="M489.5744 702.1056c-60.0576 0-108.9536-48.9984-108.9536-109.2096s48.8448-109.2096 108.9536-109.2096 108.9536 48.9984 108.9536 109.2096-48.8448 109.2096-108.9536 109.2096z m0-197.9904c-48.7936 0-88.4736 39.8336-88.4736 88.7296s39.68 88.7296 88.4736 88.7296 88.4736-39.8336 88.4736-88.7296-39.68-88.7296-88.4736-88.7296zM824.8832 425.1136h-76.4928c-14.1312 0-25.6-11.4688-25.6-25.6v-30.1568c0-14.1312 11.4688-25.6 25.6-25.6h76.4928c14.1312 0 25.6 11.4688 25.6 25.6v30.1568c0 14.08-11.4688 25.6-25.6 25.6z m-76.4416-60.928c-2.816 0-5.12 2.304-5.12 5.12v30.1568c0 2.816 2.304 5.12 5.12 5.12h76.4928c2.816 0 5.12-2.304 5.12-5.12v-30.1568c0-2.816-2.304-5.12-5.12-5.12h-76.4928z" fill="#010101" p-id="2645"></path><path d="M261.1712 193.1264H140.1856c-11.4688 0-20.7872 9.728-20.7872 21.7088V301.056c12.3904-7.8848 26.88-12.4928 42.4448-12.4928h120.064v-73.728c0-11.9808-9.2672-21.7088-20.736-21.7088z m-11.776 56.1152c0 3.84-3.1232 6.9632-6.9632 6.9632H159.3344c-3.84 0-6.9632-3.1232-6.9632-6.9632v-11.264c0-3.84 3.1232-6.9632 6.9632-6.9632h83.0976c3.84 0 6.9632 3.1232 6.9632 6.9632v11.264z" fill="#FA9136" p-id="2646"></path><path d="M100.3008 302.1312c-1.6896 0-3.3792-0.4096-4.9152-1.28a10.2144 10.2144 0 0 1-5.3248-8.96V205.7216c0-17.6128 13.9264-32 31.0272-32h120.9856c17.1008 0 31.0272 14.336 31.0272 32v73.6768c0 5.632-4.608 10.24-10.24 10.24H142.7456c-12.9536 0-25.7024 3.7888-36.9152 10.9056-1.6896 1.0752-3.584 1.5872-5.5296 1.5872z m20.7872-107.9296c-5.7856 0-10.5472 5.1712-10.5472 11.52v69.5296c10.2912-3.9936 21.1456-6.0928 32.2048-6.0928h109.824V205.7216c0-6.3488-4.7104-11.52-10.5472-11.52H121.088z m102.1952 63.1296H140.1856a17.2032 17.2032 0 0 1-17.2032-17.2032v-11.264a17.2032 17.2032 0 0 1 17.2032-17.2032h83.0976a17.2032 17.2032 0 0 1 17.2032 17.2032v11.264c0 9.472-7.68 17.2032-17.2032 17.2032z m-79.8208-20.48h76.5952v-4.7616H143.4624v4.7616z" fill="#010101" p-id="2647"></path><path d="M836.4544 914.8928H142.7456c-50.7904 0-92.16-41.3696-92.16-92.16v-201.7792c0-5.632 4.608-10.24 10.24-10.24s10.24 4.608 10.24 10.24v201.7792c0 39.5264 32.1536 71.68 71.68 71.68h693.7088c39.5264 0 71.68-32.1536 71.68-71.68V361.3184c0-39.5264-32.1536-71.68-71.68-71.68H142.7456c-39.5264 0-71.68 32.1536-71.68 71.68v42.5984c0 5.632-4.608 10.24-10.24 10.24s-10.24-4.608-10.24-10.24v-42.5984c0-50.7904 41.3696-92.16 92.16-92.16h693.7088c50.7904 0 92.16 41.3696 92.16 92.16v461.4144c0 50.7904-41.3696 92.16-92.16 92.16z" fill="#010101" p-id="2648"></path><path d="M60.8256 560.5888c-5.632 0-10.24-4.608-10.24-10.24V447.7952c0-5.632 4.608-10.24 10.24-10.24s10.24 4.608 10.24 10.24v102.5536c0 5.632-4.608 10.24-10.24 10.24zM230.2464 844.9024H139.5712c-5.632 0-10.24-4.608-10.24-10.24s4.608-10.24 10.24-10.24h90.6752a10.24 10.24 0 1 1 0 20.48zM294.7584 844.9024H262.144c-5.632 0-10.24-4.608-10.24-10.24s4.608-10.24 10.24-10.24h32.6144c5.632 0 10.24 4.608 10.24 10.24s-4.608 10.24-10.24 10.24zM808.2432 862.2592c-23.296 0-42.2912-18.944-42.2912-42.24s18.944-42.2912 42.2912-42.2912c23.296 0 42.24 18.944 42.24 42.2912 0 23.2448-18.944 42.24-42.24 42.24z m0-64.1024c-12.032 0-21.8112 9.7792-21.8112 21.8112a21.7856 21.7856 0 0 0 43.5712 0c0-12.032-9.7792-21.8112-21.76-21.8112z" fill="#010101" p-id="2649"></path><path d="M386.6624 343.9104h-45.1072c-5.632 0-10.24-4.608-10.24-10.24s4.608-10.24 10.24-10.24h45.1072c5.632 0 10.24 4.608 10.24 10.24s-4.608 10.24-10.24 10.24zM139.5712 420.7104c-5.632 0-10.24-4.608-10.24-10.24v-40.0384c0-25.9072 21.0944-47.0016 47.0016-47.0016h108.5952c5.632 0 10.24 4.608 10.24 10.24s-4.608 10.24-10.24 10.24H176.3328c-14.6432 0-26.5216 11.8784-26.5216 26.5216v40.0384a10.24 10.24 0 0 1-10.24 10.24zM331.776 540.9792c-0.8704 0-1.792-0.1024-2.6624-0.3584a10.20416 10.20416 0 0 1-7.2192-12.544c29.952-111.104 144.0256-123.2896 145.2032-123.392 5.7344-0.512 10.6496 3.584 11.1616 9.216 0.5632 5.632-3.584 10.6496-9.216 11.1616-4.2496 0.4096-101.1712 11.264-127.3856 108.3392-1.28 4.5568-5.376 7.5776-9.8816 7.5776z" fill="#FFFFFF" p-id="2650"></path></svg>