<?xml version="1.0" standalone="no"?><!DOCTYPE svg PUBLIC "-//W3C//DTD SVG 1.1//EN" "http://www.w3.org/Graphics/SVG/1.1/DTD/svg11.dtd"><svg t="1651485247477" class="icon" viewBox="0 0 1024 1024" version="1.1" xmlns="http://www.w3.org/2000/svg" p-id="2059" xmlns:xlink="http://www.w3.org/1999/xlink" width="16" height="16"><defs><style type="text/css">@font-face { font-family: feedback-iconfont; src: url("//at.alicdn.com/t/font_1031158_u69w8yhxdu.woff2?t=1630033759944") format("woff2"), url("//at.alicdn.com/t/font_1031158_u69w8yhxdu.woff?t=1630033759944") format("woff"), url("//at.alicdn.com/t/font_1031158_u69w8yhxdu.ttf?t=1630033759944") format("truetype"); }
</style></defs><path d="M491.8784 253.3888s-13.3632-113.1008 81.408-154.4192c33.6896-12.6976 68.0448-33.6896 68.0448-33.6896s103.6288 99.1744 40.704 247.3472c-92.8768 60.9792-190.1568-59.2384-190.1568-59.2384z" fill="#BFE5BD" p-id="2060"></path><path d="M596.2752 192.0512c-4.1984-21.8112-35.6864-48.4352-61.952-67.2256-51.6608 50.1248-42.4448 128.5632-42.4448 128.5632s97.28 120.2176 190.1056 59.1872c19.6608-46.2336 23.04-87.7056 18.4832-122.88-39.0656-9.6256-79.2064-1.28-104.192 2.3552z" fill="#A2DD9E" p-id="2061"></path><path d="M626.4832 344.9856c-61.696 0-119.2448-48.1792-146.5344-81.92a15.3088 15.3088 0 0 1-3.328-7.8848c-0.1536-1.2288-13.4656-124.928 90.5216-170.2912 0.256-0.1024 0.4608-0.2048 0.7168-0.3072 32-12.0832 65.1264-32.2048 65.4336-32.4096 5.9392-3.6352 13.568-2.816 18.6368 1.9968 1.1264 1.0752 110.5408 108.3392 44.1856 264.448-1.1776 2.7648-3.1744 5.1712-5.6832 6.8096-21.0944 13.8752-42.8032 19.5584-63.9488 19.5584zM506.7776 247.1424c15.8208 17.7664 92.16 96.8704 162.9184 55.04 44.8-110.8992-10.2912-191.9488-31.3856-217.3952-13.1072 7.424-36.096 19.6096-59.1872 28.3648-73.6256 32.3584-73.5744 113.7152-72.3456 133.9904z" fill="#000F04" p-id="2062"></path><path d="M424.8064 135.4752s-159.2832 166.912 65.792 259.4304c61.0304-43.8784 113.5104-201.216-65.792-259.4304z" fill="#BFE5BD" p-id="2063"></path><path d="M537.6512 224.4096c-12.1344 4.1984-30.6688 17.8688-49.7152 28.928-22.9376-27.648-71.936-39.5776-108.1344-44.6976-15.7184 42.4448-17.7664 96.5632 36.9152 143.2064 37.12 9.728 76.7488 18.944 94.8224 23.04 29.5936-35.84 49.408-96.5632 26.112-150.4768z" fill="#A2DD9E" p-id="2064"></path><path d="M490.5984 410.2656c-1.9968 0-3.9424-0.3584-5.8368-1.1776-73.4208-30.1568-116.224-71.7312-127.232-123.4944C340.0192 203.264 410.6752 128.0512 413.696 124.8768c4.096-4.2496 10.24-5.8368 15.872-3.9936 97.0752 31.488 125.3376 88.7296 131.9936 131.2256 10.0864 64.6656-24.3712 128.256-61.952 155.2896-2.6624 1.8944-5.8368 2.8672-9.0112 2.8672z m-60.928-256.8704c-15.5136 19.0464-53.504 72.3968-42.0352 125.952 8.448 39.3728 42.24 72.2944 100.608 97.8432 27.6992-24.3712 50.2784-73.3696 42.9568-120.3712-7.2704-46.2336-42.2912-81.8688-101.5296-103.424z" fill="#000F04" p-id="2065"></path><path d="M671.2832 609.9456s163.2768-90.112 219.2384-17.6128c55.9616 72.4992 72.4992 100.4544 92.8256 110.6432-38.144 54.6816-132.2496 189.4912-325.5296 62.3104-97.8944-142.4384 13.4656-155.3408 13.4656-155.3408z" fill="#BFE5BD" p-id="2066"></path><path d="M867.584 807.0656c-53.76 11.7248-119.808 17.3568-209.7664-41.8304-97.8944-142.4384 13.4656-155.3408 13.4656-155.3408s141.3632-77.9776 206.08-30.3616c-11.5712 36.1984-37.4784 94.8224-88.832 118.6816 62.7712 14.3872 139.8784 21.0944 194.7648 4.6592-13.824 19.8144-35.0208 50.176-65.6384 74.752 0.1024 0.1024-28.9792 24.8832-50.0736 29.44z" fill="#A2DD9E" p-id="2067"></path><path d="M807.2704 833.5872c-48.896 0-101.7344-18.5344-157.8496-55.5008-1.6384-1.0752-3.072-2.5088-4.1984-4.1472-39.5264-57.4976-51.8656-103.5776-36.6592-137.0112 14.2336-31.2832 47.2064-39.7824 57.7536-41.728 22.016-11.7248 176.4352-89.9584 236.3904-12.2368 14.592 18.8928 26.7264 35.1232 36.5056 48.128 26.112 34.816 39.2192 52.2752 51.0464 58.1632 3.9936 1.9968 6.912 5.632 8.0384 9.9328s0.256 8.9088-2.304 12.5952c-14.4384 20.6848-36.2496 51.968-68.608 77.9776a15.37536 15.37536 0 0 1-19.2512-23.9616c23.1424-18.5856 40.8064-40.96 53.8112-59.0336-12.544-10.9568-25.6512-28.416-47.2576-57.2416-9.728-12.9536-21.76-29.0304-36.2496-47.7696-39.2704-50.8928-157.44-1.5872-199.68 21.6576-1.7408 0.9728-3.6864 1.5872-5.632 1.792-0.2048 0-27.2896 3.7376-36.6592 24.6272-6.9632 15.5648-6.8608 46.2336 32.4096 104.2432 71.424 46.336 135.424 59.6992 190.4128 39.7312 7.9872-2.8672 16.7936 1.2288 19.6608 9.216s-1.2288 16.7936-9.216 19.6608a181.64736 181.64736 0 0 1-62.464 10.9056z" fill="#000F04" p-id="2068"></path><path d="M251.6992 485.5296s-188.9792-13.9776-201.728 247.9616c109.3632 64.8704 269.568 29.2352 269.568 29.2352l139.4176-230.912-207.2576-46.2848z" fill="#BFE5BD" p-id="2069"></path><path d="M319.5904 762.7264l89.3952-148.0704-38.8608-84.992s-0.4096-5.2224-127.4368 44.6976c-0.768 78.6944-192.7168 159.1296-192.7168 159.1296 109.4144 64.8192 269.6192 29.2352 269.6192 29.2352z" fill="#A2DD9E" p-id="2070"></path><path d="M218.2144 787.968c-54.4256 0-120.832-8.5504-176.0256-41.3184a15.42656 15.42656 0 0 1-7.5264-13.9776c4.6592-96.3584 33.024-168.2432 84.224-213.504 60.7744-53.76 130.9696-49.2544 133.9904-48.9984 0.768 0.0512 1.4848 0.1536 2.2016 0.3072l207.3088 46.2848c4.8128 1.0752 8.8064 4.4032 10.752 8.96 1.9456 4.5568 1.5872 9.728-0.9728 13.9776l-139.4176 230.912c-2.1504 3.584-5.7344 6.144-9.8304 7.0656-3.4816 0.8192-47.4112 10.2912-104.704 10.2912z m-152.32-63.1808c90.4192 48.2304 214.8352 29.4912 244.0704 24.1664l124.8768-206.7968-185.1392-41.3696c-7.9872-0.3072-63.5392-0.3584-110.848 41.7792-42.9056 38.2464-67.4304 99.4816-72.96 182.2208z" fill="#000F04" p-id="2071"></path><path d="M582.8096 271.872c-59.0336 19.3024-153.856 78.848-105.5232 226.3552s223.7952 203.4688 314.112 130.9696 81.408-195.84 44.4928-259.4304c-36.9152-63.5392-124.672-139.8272-253.0816-97.8944z" fill="#ACACEF" p-id="2072"></path><path d="M791.3472 629.1968c90.2656-72.4992 81.408-195.84 44.4928-259.4304a234.8544 234.8544 0 0 0-29.3888-39.936c27.392 102.5024-15.3088 151.6544-15.3088 151.6544s-31.488 17.3568-40.4992 47.9744c-40.192-44.9536-80.384-56.064-141.1584-83.4048 11.776-72.3968-54.784-162.6112-54.8864-162.7136-55.9104 27.5456-118.4768 89.344-77.312 214.8864 48.2816 147.5072 223.7952 203.4688 314.0608 130.9696z" fill="#9E9AEA" p-id="2073"></path><path d="M694.4256 676.0448c-20.736 0-42.24-3.1232-63.6928-9.5232a252.69248 252.69248 0 0 1-168.0896-163.5328c-22.8352-69.6832-17.92-128.512 14.5408-174.848 30.0032-42.8032 76.032-62.7712 100.864-70.8608 65.4336-21.3504 128.9216-15.7184 183.7056 16.384a15.37536 15.37536 0 0 1-15.5648 26.5216c-47.616-27.904-101.0176-32.512-158.6176-13.6704-21.1456 6.912-60.3648 23.808-85.248 59.2896-26.624 37.9904-30.1568 87.6544-10.496 147.6608a221.99296 221.99296 0 0 0 147.6096 143.6672c53.6576 15.9744 106.8544 8.5504 142.2336-19.8656 83.712-67.2256 73.8816-182.784 40.8576-239.7184a217.2416 217.2416 0 0 0-27.4432-37.3248 15.42144 15.42144 0 0 1 1.024-21.7088 15.37536 15.37536 0 0 1 21.7088 1.024 247.4496 247.4496 0 0 1 31.2832 42.5984c39.5264 68.096 50.688 199.7312-48.1792 279.0912-28.5696 22.8864-66.048 34.816-106.496 34.816z" fill="#000F04" p-id="2074"></path><path d="M300.4928 259.84c-80.6912 21.8624-161.4848 113.7664-111.9232 240.9472s175.4624 103.0656 220.0064 101.12 125.9008-106.24 119.552-192.6656-108.0832-181.76-227.6352-149.4016z" fill="#ACACEF" p-id="2075"></path><path d="M408.9856 460.288c-19.1488 10.3936-74.0352 23.9104-106.3424 0-93.1328-35.6864-85.9136-148.224-85.9136-148.2752-39.1168 43.4176-59.136 109.2096-28.1088 188.7744 49.6128 127.1808 175.4624 103.0656 220.0064 101.12 27.904-1.2288 70.2464-42.5984 96.4096-94.5664 6.3488-22.7328 13.5168-44.9536 20.9408-61.1328v-0.1024c-34.5088-16.5888-97.8432 3.7888-116.992 14.1824z" fill="#9E9AEA" p-id="2076"></path><path d="M353.9456 620.1856c-58.4192 0-141.1584-15.104-179.6608-113.8688-43.3664-111.2576 6.0416-194.7136 66.7648-235.7248 7.0144-4.7616 16.5888-2.8672 21.3504 4.1472 4.7616 7.0144 2.9184 16.5888-4.1472 21.3504-50.8928 34.3552-92.16 104.704-55.3472 199.1168 40.6016 104.0896 137.2672 96.512 189.2352 92.4672 5.9904-0.4608 11.264-0.8704 15.7696-1.0752 8.704-0.3584 26.4192-9.3696 47.8208-33.3824 31.0784-34.9184 60.7744-92.6208 57.088-142.7968-2.9696-40.2944-29.184-82.5856-68.4544-110.3872-41.5744-29.44-91.2384-38.4512-139.8272-25.2928-1.024 0.256-2.048 0.5632-3.072 0.8704-8.192 2.3552-16.6912-2.304-19.0464-10.3936-2.4064-8.1408 2.2528-16.6912 10.3936-19.0464 1.2288-0.3584 2.4576-0.7168 3.6864-1.024 57.6-15.616 116.4288-5.0176 165.632 29.8496 46.5408 32.9728 77.7216 84.0192 81.3056 133.2224 4.6592 63.1808-32 128.6144-64.768 165.4784-14.0288 15.7696-41.728 42.4448-69.4272 43.6736-4.1984 0.2048-9.1648 0.5632-14.7456 1.024-10.8544 0.7168-24.832 1.792-40.5504 1.792z" fill="#000F04" p-id="2077"></path><path d="M564.992 512.2048S458.1888 456.2432 332.288 547.84s-104.2944 312.832 64.8704 382.7712 317.9008-49.6128 315.3408-183.0912-104.6016-222.0032-147.5072-235.3152z" fill="#ACACEF" p-id="2078"></path><path d="M454.6048 818.2272c-152.2176-12.7488-149.248-211.8144-147.4048-248.32-96.7168 101.0688-66.7648 295.8336 90.0096 360.6528 169.1136 69.9392 317.9008-49.6128 315.3408-183.0912-59.7504 96.5632-196.1984 117.1456-257.9456 70.7584z" fill="#9E9AEA" p-id="2079"></path><path d="M497.2032 966.5536c-34.8672 0-70.7072-7.2192-105.9328-21.76-85.0944-35.1744-142.3872-110.4384-153.1904-201.216-9.8816-82.9952 22.784-162.7648 85.1456-208.128 126.0544-91.6992 233.8816-44.1344 247.552-37.4784 6.5536 2.1504 13.824 5.5296 21.5552 10.0864 7.3216 4.3008 9.7792 13.6704 5.5296 20.992a15.36512 15.36512 0 0 1-20.992 5.5296c-7.7312-4.5056-13.2096-6.656-16.4352-7.68-0.8704-0.256-1.7408-0.6144-2.56-1.0752-3.9936-2.048-100.4544-50.0224-216.5248 34.4064-53.4016 38.8608-81.3056 107.6736-72.704 179.6608 9.472 79.616 59.6992 145.5616 134.4 176.4864 74.1888 30.6688 151.2448 24.7296 211.3536-16.2816 52.992-36.1472 83.9168-93.0816 82.7904-152.32-1.5872-82.7392-43.8272-141.8752-68.864-169.7792a15.3344 15.3344 0 0 1 1.1776-21.7088c6.2976-5.6832 16.0256-5.12 21.7088 1.1776 27.904 31.0784 74.9568 97.024 76.7488 189.696 1.3312 69.632-34.6112 136.2944-96.2048 178.2784-40.0384 27.2896-86.3232 41.1136-134.5536 41.1136z" fill="#000F04" p-id="2080"></path><path d="M444.2112 883.3024c-23.7056 0-43.008-19.3024-43.008-43.008s19.3024-43.008 43.008-43.008 43.008 19.3024 43.008 43.008-19.3024 43.008-43.008 43.008z m0-55.296c-6.7584 0-12.288 5.5296-12.288 12.288s5.5296 12.288 12.288 12.288 12.288-5.5296 12.288-12.288-5.5296-12.288-12.288-12.288zM284.0064 525.056c-26.0096 0-47.1552-21.1456-47.1552-47.1552s21.1456-47.1552 47.1552-47.1552 47.1552 21.1456 47.1552 47.1552-21.1968 47.1552-47.1552 47.1552z m0-63.5904c-9.0624 0-16.4352 7.3728-16.4352 16.4352s7.3728 16.4352 16.4352 16.4352 16.4352-7.3728 16.4352-16.4352-7.424-16.4352-16.4352-16.4352zM778.5472 568.6272c-3.072 0-6.1952-0.3584-9.2672-1.1776-11.776-3.0208-21.5552-11.8272-26.7264-24.1664-4.6592-11.0592-5.4784-24.1664-2.2016-36.864 7.2192-28.2624 31.232-45.7216 54.6304-39.7312 23.4496 5.9904 36.1472 32.768 28.9792 61.0304-6.2976 24.5248-25.1904 40.9088-45.4144 40.9088z m7.3216-72.3968c-5.5808 0-13.0048 6.9632-15.7696 17.7664-1.5872 6.1952-1.28 12.4928 0.768 17.3568 0.8704 1.9968 2.7648 5.5296 6.0416 6.3488 5.6832 1.4848 14.2848-5.7856 17.3056-17.5616 3.0208-11.8272-1.0752-22.272-6.7584-23.7056-0.5632-0.1536-1.0752-0.2048-1.5872-0.2048z m23.1936 27.6992z" fill="#000F04" p-id="2081"></path></svg>