<?xml version="1.0" standalone="no"?><!DOCTYPE svg PUBLIC "-//W3C//DTD SVG 1.1//EN" "http://www.w3.org/Graphics/SVG/1.1/DTD/svg11.dtd"><svg t="1651485230320" class="icon" viewBox="0 0 1024 1024" version="1.1" xmlns="http://www.w3.org/2000/svg" p-id="1907" xmlns:xlink="http://www.w3.org/1999/xlink" width="16" height="16"><defs><style type="text/css">@font-face { font-family: feedback-iconfont; src: url("//at.alicdn.com/t/font_1031158_u69w8yhxdu.woff2?t=1630033759944") format("woff2"), url("//at.alicdn.com/t/font_1031158_u69w8yhxdu.woff?t=1630033759944") format("woff"), url("//at.alicdn.com/t/font_1031158_u69w8yhxdu.ttf?t=1630033759944") format("truetype"); }
</style></defs><path d="M235.3152 276.7872S88.8832 356.9664 88.8832 527.36 187.392 856.8832 409.6 880.4352c222.208 23.552 436.1728 2.304 497.6128-166.0416s24.832-322.56-52.2752-398.3872C777.7792 240.1792 338.5856 220.6208 235.3152 276.7872z" fill="#D884BA" p-id="1908"></path><path d="M415.6928 791.8592c-347.0336-118.2208-258.816-398.848-258.816-398.848l-13.9264-30.976c-29.184 40.2944-54.0672 95.1296-54.0672 165.3248 0 170.3936 98.4576 329.5232 320.7168 353.0752 178.5344 18.8928 351.5904 8.8576 444.672-83.0464-139.6736 56.2688-319.5904 34.9696-438.5792-5.5296z" fill="#C462A6" p-id="1909"></path><path d="M548.6592 903.7312c-43.2128 0-90.0608-2.6624-140.6976-8.0384-107.4688-11.3664-195.2768-55.296-253.952-127.0272C101.376 704.3584 73.5232 620.9024 73.5232 527.36c0-177.4592 148.0704-260.5568 154.368-264.0384h0.0512c61.4912-33.4848 214.9888-37.9904 327.8336-31.744 58.4704 3.2256 253.5936 18.1248 309.9136 73.5232 75.9296 74.6496 122.6752 231.7824 55.9616 414.6176-45.0048 123.2896-167.5776 184.0128-372.992 184.0128zM242.688 290.304c-2.0992 1.1776-138.4448 78.6432-138.4448 237.056 0 147.6096 80.64 313.8048 306.944 337.7664 275.0976 29.1328 432.64-21.9136 481.5872-156.0064 62.0544-169.984 20.2752-314.4192-48.64-382.1568-31.8464-31.2832-145.7152-56.7296-290.0992-64.7168-140.9536-7.8336-266.0864 3.4304-311.3472 28.0576z" fill="#000F04" p-id="1910"></path><path d="M368.64 185.2928S207.872 238.9504 166.0416 357.888s30.0544 233.984 155.5456 254.8736c125.4912 20.9408 354.2528 19.6096 435.3024-26.1632s154.2656-135.7312 109.824-258.048-196.8128-150.4768-281.0368-164.1984C484.9664 148.0192 368.64 185.2928 368.64 185.2928z" fill="#EFA3D4" p-id="1911"></path><path d="M760.4736 599.9104c-5.2736 0-10.4448-2.7136-13.2608-7.6288a15.36512 15.36512 0 0 1 5.5296-20.992 283.5968 283.5968 0 0 0 16.0768-10.0864c7.0656-4.7616 16.5888-2.9184 21.3504 4.1472 4.7616 7.0144 2.9184 16.5888-4.1472 21.3504-5.7344 3.8912-11.7248 7.6288-17.8176 11.1616-2.4064 1.3824-5.0688 2.048-7.7312 2.048z" fill="#000F04" p-id="1912"></path><path d="M512.6144 642.8672c-68.5056 0-138.1376-5.6832-193.536-14.9504-65.792-10.9568-121.4976-47.6672-152.8832-100.7616-30.72-51.968-35.8912-113.92-14.6432-174.3872 43.8272-124.6208 205.4144-179.7632 212.2752-182.0672 5.0688-1.6384 121.1904-38.2464 224.3072-21.504 73.0624 11.8784 244.1728 39.6288 293.0176 174.08 33.3312 91.6992 2.6112 160.4096-28.9792 201.8816-5.12 6.7584-14.7968 8.0384-21.504 2.9184s-8.0384-14.7968-2.9184-21.504c26.9824-35.3792 53.1456-94.1056 24.576-172.7488-42.7008-117.504-195.584-142.336-269.056-154.2656-95.8976-15.5648-208.7424 20.0192-209.8688 20.3776-1.3312 0.4608-154.0096 52.736-192.8192 163.0208C162.304 414.72 166.6048 467.5072 192.6144 511.5392c26.7264 45.2608 74.6496 76.5952 131.4816 86.0672 111.4624 18.5856 281.4464 22.6304 376.9344-6.5024 8.1408-2.4576 16.6912 2.0992 19.2 10.24 2.4576 8.0896-2.0992 16.6912-10.24 19.2-51.712 15.7184-123.904 22.3232-197.376 22.3232z" fill="#000F04" p-id="1913"></path><path d="M337.2544 266.3424s-56.2176 11.776-75.8272 82.3808 41.8304 139.8784 135.936 135.936c94.1056-3.9424 196.096 3.9424 230.0928-44.4416 33.9968-48.384 103.2704-87.6032 86.272-141.1584-16.9984-53.6064-78.4384-99.328-138.5472-100.6592-60.1088-1.3312-92.8256-26.2656-103.2704-57.4976-10.4448-31.2832-52.3776-30.976-58.2144 32.8704C407.8592 237.568 353.7408 260.096 337.2544 266.3424z" fill="#F7D5B0" p-id="1914"></path><path d="M389.7856 500.1728c-50.4832 0-94.6176-19.4048-122.0096-53.9648-23.2448-29.2864-30.9248-66.304-21.0944-101.5808 20.3264-73.1648 76.1856-90.4192 86.0672-92.928 27.8528-10.752 61.4912-33.2288 65.6896-79.3088 5.2736-57.856 35.9424-65.8432 45.2608-66.9184 18.8416-2.1504 35.9936 10.0864 42.8544 30.5664 9.6768 28.8768 42.0864 46.0288 89.0368 47.0528 66.3552 1.4336 133.5296 50.3808 152.8832 111.36 14.592 46.0288-20.9408 82.176-52.3264 114.0736-12.9536 13.1584-26.368 26.8288-36.0448 40.5504-29.8496 42.496-97.1264 47.4624-175.4624 49.2544h-0.3584a15.36512 15.36512 0 0 1-0.3584-30.72c67.2768-1.536 129.4336-5.4784 151.04-36.1984 11.1104-15.8208 25.4464-30.3616 39.2704-44.4416 33.5872-34.1504 53.3504-56.7808 44.9536-83.2512-15.36-48.4352-71.1168-88.7808-124.2624-89.9584-60.672-1.3312-103.4752-26.112-117.504-67.9936-2.0992-6.3488-6.1952-10.24-10.1376-9.8304-5.9392 0.6656-15.6672 11.7248-18.176 39.2192-4.4544 48.64-35.072 86.1696-86.272 105.5744-0.768 0.3072-1.536 0.512-2.304 0.6656-1.8432 0.4096-47.4624 11.3664-64.1536 71.424-7.2704 26.112-1.7408 52.48 15.5648 74.2912 22.7328 28.672 61.0304 43.9808 104.96 42.24l3.6352-0.1536c8.2944-0.3584 15.616 6.2464 15.9744 14.6944s-6.2464 15.616-14.6944 15.9744l-3.584 0.1536c-2.9184 0.1024-5.6832 0.1536-8.448 0.1536z" fill="#000F04" p-id="1915"></path></svg>